<?xml version="1.0" encoding="iso-8859-1"?>
<!-- Generator: Adobe Illustrator 19.0.0, SVG Export Plug-In . SVG Version: 6.00 Build 0)  -->
<svg version="1.1" xmlns="http://www.w3.org/2000/svg" xmlns:xlink="http://www.w3.org/1999/xlink" x="0px" y="0px"
	 viewBox="0 0 197.601 162.951" style="enable-background:new 0 0 197.601 162.951;" xml:space="preserve">
<g id="showerrain">
	<g>
		<defs>
			<filter id="Adobe_OpacityMaskFilter" filterUnits="userSpaceOnUse" x="24.807" y="0" width="89.656" height="89.656">
				<feColorMatrix  type="matrix" values="1 0 0 0 0  0 1 0 0 0  0 0 1 0 0  0 0 0 1 0"/>
			</filter>
		</defs>
		<mask maskUnits="userSpaceOnUse" x="24.807" y="0" width="89.656" height="89.656" id="SVGID_1_">
			<g style="filter:url(#Adobe_OpacityMaskFilter);">
				<rect x="3.915" y="-3.715" style="fill:#FFFFFF;" width="97.375" height="45.621"/>
			</g>
		</mask>
		<g style="mask:url(#SVGID_1_);">
			<path style="fill:#903F98;" d="M69.635,0C44.877,0,24.807,20.07,24.807,44.828s20.07,44.828,44.828,44.828
				s44.828-20.07,44.828-44.828S94.393,0,69.635,0z M69.635,65.906c-11.641,0-21.078-9.437-21.078-21.078
				c0-11.642,9.437-21.078,21.078-21.078c11.642,0,21.078,9.436,21.078,21.078C90.713,56.469,81.276,65.906,69.635,65.906z"/>
			<path style="fill:#0072BC;" d="M69.635,3.563c-22.79,0-41.266,18.475-41.266,41.266s18.476,41.265,41.266,41.265
				c22.79,0,41.266-18.475,41.266-41.265S92.425,3.563,69.635,3.563z M69.635,65.906c-11.641,0-21.078-9.437-21.078-21.078
				c0-11.642,9.437-21.078,21.078-21.078c11.642,0,21.078,9.436,21.078,21.078C90.713,56.469,81.276,65.906,69.635,65.906z"/>
			<path style="fill:#00B9F2;" d="M69.635,6.531c-21.15,0-38.297,17.146-38.297,38.297c0,21.15,17.146,38.297,38.297,38.297
				c21.151,0,38.297-17.146,38.297-38.297C107.932,23.677,90.786,6.531,69.635,6.531z M69.635,65.906
				c-11.641,0-21.078-9.437-21.078-21.078c0-11.642,9.437-21.078,21.078-21.078c11.642,0,21.078,9.436,21.078,21.078
				C90.713,56.469,81.276,65.906,69.635,65.906z"/>
			<path style="fill:#7DC242;" d="M69.635,9.5c-19.511,0-35.328,15.817-35.328,35.328c0,19.511,15.817,35.328,35.328,35.328
				c19.511,0,35.328-15.817,35.328-35.328C104.963,25.317,89.146,9.5,69.635,9.5z M69.635,65.906
				c-11.641,0-21.078-9.437-21.078-21.078c0-11.642,9.437-21.078,21.078-21.078c11.642,0,21.078,9.436,21.078,21.078
				C90.713,56.469,81.276,65.906,69.635,65.906z"/>
			<path style="fill:#FFF200;" d="M69.635,12.469c-17.872,0-32.359,14.488-32.359,32.359c0,17.872,14.488,32.359,32.359,32.359
				s32.359-14.488,32.359-32.359C101.994,26.957,87.506,12.469,69.635,12.469z M69.635,65.906c-11.641,0-21.078-9.437-21.078-21.078
				c0-11.642,9.437-21.078,21.078-21.078c11.642,0,21.078,9.436,21.078,21.078C90.713,56.469,81.276,65.906,69.635,65.906z"/>
			<path style="fill:#FAAC56;" d="M69.635,14.844c-16.56,0-29.984,13.425-29.984,29.984c0,16.56,13.424,29.984,29.984,29.984
				c16.56,0,29.984-13.425,29.984-29.984C99.619,28.269,86.195,14.844,69.635,14.844z M69.635,65.906
				c-11.641,0-21.078-9.437-21.078-21.078c0-11.642,9.437-21.078,21.078-21.078c11.642,0,21.078,9.436,21.078,21.078
				C90.713,56.469,81.276,65.906,69.635,65.906z"/>
			<path style="fill:#ED1C24;" d="M69.635,19c-14.264,0-25.828,11.563-25.828,25.828c0,14.265,11.564,25.828,25.828,25.828
				c14.265,0,25.828-11.563,25.828-25.828C95.463,30.564,83.899,19,69.635,19z M69.635,65.906c-11.641,0-21.078-9.437-21.078-21.078
				c0-11.642,9.437-21.078,21.078-21.078c11.642,0,21.078,9.436,21.078,21.078C90.713,56.469,81.276,65.906,69.635,65.906z"/>
		</g>
		<g>
			
				<radialGradient id="SVGID_2_" cx="48.7557" cy="16.9925" r="37.4156" gradientTransform="matrix(1 0 0 1.25 0 41.7493)" gradientUnits="userSpaceOnUse">
				<stop  offset="0" style="stop-color:#FFFFFF"/>
				<stop  offset="0.2076" style="stop-color:#F7F8F9"/>
				<stop  offset="0.3887" style="stop-color:#E7EAEE"/>
				<stop  offset="0.5281" style="stop-color:#D6DAE2"/>
				<stop  offset="0.6096" style="stop-color:#DDE1E7"/>
				<stop  offset="0.7182" style="stop-color:#F3F3F6"/>
				<stop  offset="0.7191" style="stop-color:#F3F3F6"/>
			</radialGradient>
			<ellipse style="fill:url(#SVGID_2_);" cx="50.054" cy="73.938" rx="20.229" ry="18.248"/>
			<defs>
				<filter id="Adobe_OpacityMaskFilter_1_" filterUnits="userSpaceOnUse" x="33.048" y="56.14" width="43.967" height="23.109">
					<feColorMatrix  type="matrix" values="1 0 0 0 0  0 1 0 0 0  0 0 1 0 0  0 0 0 1 0"/>
				</filter>
			</defs>
			<mask maskUnits="userSpaceOnUse" x="33.048" y="56.14" width="43.967" height="23.109" id="SVGID_3_">
				<g style="filter:url(#Adobe_OpacityMaskFilter_1_);">
					
						<linearGradient id="SVGID_4_" gradientUnits="userSpaceOnUse" x1="163.2446" y1="203.2427" x2="164.8002" y2="213.743" gradientTransform="matrix(4.4887 0.4284 -1.0777 2.3855 -472.8386 -504.4705)">
						<stop  offset="0" style="stop-color:#FFFFFF"/>
						<stop  offset="1" style="stop-color:#000000"/>
					</linearGradient>
					<polygon style="fill:url(#SVGID_4_);" points="64.17,78.995 10.092,79.012 12.884,49.559 66.962,49.538 					"/>
				</g>
			</mask>
			<path style="mask:url(#SVGID_3_);fill:#FFFFFF;" d="M76.892,68.688c-1.272,6.36-12.09,11.063-24.166,10.518
				c-12.07-0.546-20.825-6.148-19.556-12.501c1.268-6.353,12.085-11.064,24.165-10.523C69.409,56.738,78.161,62.328,76.892,68.688z"
				/>
			<radialGradient id="SVGID_5_" cx="119.5531" cy="32.4069" r="51.4435" gradientUnits="userSpaceOnUse">
				<stop  offset="0" style="stop-color:#FFFFFF"/>
				<stop  offset="0.2076" style="stop-color:#F7F8F9"/>
				<stop  offset="0.3887" style="stop-color:#E7EAEE"/>
				<stop  offset="0.5281" style="stop-color:#D6DAE2"/>
				<stop  offset="0.6096" style="stop-color:#DDE1E7"/>
				<stop  offset="0.7182" style="stop-color:#F3F3F6"/>
				<stop  offset="0.7191" style="stop-color:#F3F3F6"/>
			</radialGradient>
			<ellipse style="fill:url(#SVGID_5_);" cx="121.217" cy="45.107" rx="25.911" ry="21.167"/>
			<defs>
				<filter id="Adobe_OpacityMaskFilter_2_" filterUnits="userSpaceOnUse" x="99.755" y="25.489" width="41.047" height="26.755">
					<feColorMatrix  type="matrix" values="1 0 0 0 0  0 1 0 0 0  0 0 1 0 0  0 0 0 1 0"/>
				</filter>
			</defs>
			<mask maskUnits="userSpaceOnUse" x="99.755" y="25.489" width="41.047" height="26.755" id="SVGID_6_">
				<g style="filter:url(#Adobe_OpacityMaskFilter_2_);">
					
						<linearGradient id="SVGID_7_" gradientUnits="userSpaceOnUse" x1="167.0392" y1="281.1365" x2="168.9137" y2="293.789" gradientTransform="matrix(2.7875 0.4757 -0.6337 2.2757 -182.2506 -700.0211)">
						<stop  offset="0" style="stop-color:#FFFFFF"/>
						<stop  offset="1" style="stop-color:#000000"/>
					</linearGradient>
					<polygon style="fill:url(#SVGID_7_);" points="127.861,53.074 77.367,51.663 79.533,17.641 130.027,19.048 					"/>
				</g>
			</mask>
			<path style="mask:url(#SVGID_6_);fill:#FFFFFF;" d="M140.705,40.598c-1.093,7.327-11.122,12.484-22.407,11.534
				c-11.279-0.951-19.537-7.668-18.447-14.989c1.09-7.32,11.118-12.487,22.406-11.542C133.538,26.564,141.795,33.266,140.705,40.598
				z"/>
			<radialGradient id="SVGID_8_" cx="165.5376" cy="63.7933" r="51.4444" gradientUnits="userSpaceOnUse">
				<stop  offset="0" style="stop-color:#FFFFFF"/>
				<stop  offset="0.2076" style="stop-color:#F7F8F9"/>
				<stop  offset="0.3887" style="stop-color:#E7EAEE"/>
				<stop  offset="0.5281" style="stop-color:#D6DAE2"/>
				<stop  offset="0.6096" style="stop-color:#DDE1E7"/>
				<stop  offset="0.7182" style="stop-color:#F3F3F6"/>
				<stop  offset="0.7191" style="stop-color:#F3F3F6"/>
			</radialGradient>
			<ellipse style="fill:url(#SVGID_8_);" cx="167.201" cy="76.494" rx="25.912" ry="21.168"/>
			<radialGradient id="SVGID_9_" cx="83.3864" cy="45.6197" r="80.4096" gradientUnits="userSpaceOnUse">
				<stop  offset="0" style="stop-color:#FFFFFF"/>
				<stop  offset="0.2076" style="stop-color:#F7F8F9"/>
				<stop  offset="0.3887" style="stop-color:#E7EAEE"/>
				<stop  offset="0.5281" style="stop-color:#D6DAE2"/>
				<stop  offset="0.6096" style="stop-color:#DDE1E7"/>
				<stop  offset="0.7182" style="stop-color:#F3F3F6"/>
				<stop  offset="0.7191" style="stop-color:#F3F3F6"/>
			</radialGradient>
			<ellipse style="fill:url(#SVGID_9_);" cx="85.999" cy="65.409" rx="40.693" ry="32.982"/>
			<defs>
				<filter id="Adobe_OpacityMaskFilter_3_" filterUnits="userSpaceOnUse" x="55.618" y="33.939" width="66.006" height="45.007">
					<feColorMatrix  type="matrix" values="1 0 0 0 0  0 1 0 0 0  0 0 1 0 0  0 0 0 1 0"/>
				</filter>
			</defs>
			<mask maskUnits="userSpaceOnUse" x="55.618" y="33.939" width="66.006" height="45.007" id="SVGID_10_">
				<g style="filter:url(#Adobe_OpacityMaskFilter_3_);">
					
						<linearGradient id="SVGID_11_" gradientUnits="userSpaceOnUse" x1="183.7955" y1="329.826" x2="186.2301" y2="346.2596" gradientTransform="matrix(3.4519 0.6227 -0.779 2.9455 -302.5216 -1060.7238)">
						<stop  offset="0" style="stop-color:#FFFFFF"/>
						<stop  offset="1" style="stop-color:#000000"/>
					</linearGradient>
					<polygon style="fill:url(#SVGID_11_);" points="111.508,82.237 30.31,79.707 33.686,22.487 114.885,25.013 					"/>
				</g>
			</mask>
			<path style="mask:url(#SVGID_10_);fill:#FFFFFF;" d="M121.473,59.418c-1.734,12.319-17.846,20.964-35.994,19.331
				C67.34,77.114,54.04,65.79,55.769,53.481c1.729-12.31,17.839-20.971,35.993-19.345C109.905,35.792,123.203,47.089,121.473,59.418
				z"/>
			<defs>
				<filter id="Adobe_OpacityMaskFilter_4_" filterUnits="userSpaceOnUse" x="143.56" y="56.255" width="43.985" height="22.796">
					<feColorMatrix  type="matrix" values="1 0 0 0 0  0 1 0 0 0  0 0 1 0 0  0 0 0 1 0"/>
				</filter>
			</defs>
			<mask maskUnits="userSpaceOnUse" x="143.56" y="56.255" width="43.985" height="22.796" id="SVGID_12_">
				<g style="filter:url(#Adobe_OpacityMaskFilter_4_);">
					
						<linearGradient id="SVGID_13_" gradientUnits="userSpaceOnUse" x1="215.8442" y1="309.5165" x2="217.0882" y2="317.9137" gradientTransform="matrix(4.4947 0.5723 -1.0548 2.9316 -492.8566 -980.4146)">
						<stop  offset="0" style="stop-color:#FFFFFF"/>
						<stop  offset="1" style="stop-color:#000000"/>
					</linearGradient>
					<polygon style="fill:url(#SVGID_13_);" points="174.78,79.139 120.675,78.401 123.31,49.381 177.414,50.115 					"/>
				</g>
			</mask>
			<path style="mask:url(#SVGID_12_);fill:#FFFFFF;" d="M187.43,68.94c-1.239,6.256-12.038,10.744-24.121,10.038
				c-12.08-0.706-20.868-6.356-19.633-12.605c1.235-6.251,12.029-10.748,24.12-10.046C179.877,57.044,188.664,62.681,187.43,68.94z"
				/>
			<radialGradient id="SVGID_14_" cx="132.8591" cy="55.6176" r="68.5112" gradientUnits="userSpaceOnUse">
				<stop  offset="0" style="stop-color:#FFFFFF"/>
				<stop  offset="0.2076" style="stop-color:#F7F8F9"/>
				<stop  offset="0.3887" style="stop-color:#E7EAEE"/>
				<stop  offset="0.5281" style="stop-color:#D6DAE2"/>
				<stop  offset="0.6096" style="stop-color:#DDE1E7"/>
				<stop  offset="0.7182" style="stop-color:#F3F3F6"/>
				<stop  offset="0.7191" style="stop-color:#F3F3F6"/>
			</radialGradient>
			<ellipse style="fill:url(#SVGID_14_);" cx="135.085" cy="72.479" rx="34.671" ry="28.102"/>
			<defs>
				<filter id="Adobe_OpacityMaskFilter_5_" filterUnits="userSpaceOnUse" x="106.73" y="45.758" width="48.322" height="33.958">
					<feColorMatrix  type="matrix" values="1 0 0 0 0  0 1 0 0 0  0 0 1 0 0  0 0 0 1 0"/>
				</filter>
			</defs>
			<mask maskUnits="userSpaceOnUse" x="106.73" y="45.758" width="48.322" height="33.958" id="SVGID_15_">
				<g style="filter:url(#Adobe_OpacityMaskFilter_5_);">
					
						<linearGradient id="SVGID_16_" gradientUnits="userSpaceOnUse" x1="171.3288" y1="237.2085" x2="173.1109" y2="249.2379" gradientTransform="matrix(3.4529 0.6462 -0.7753 3.0348 -291.4783 -792.0575)">
						<stop  offset="0" style="stop-color:#FFFFFF"/>
						<stop  offset="1" style="stop-color:#000000"/>
					</linearGradient>
					<polygon style="fill:url(#SVGID_16_);" points="142.983,81.58 83.539,79.595 85.957,36.429 145.4,38.41 					"/>
				</g>
			</mask>
			<path style="mask:url(#SVGID_15_);fill:#FFFFFF;" d="M154.943,65.012c-1.258,9.294-13.045,15.799-26.331,14.55
				c-13.279-1.251-23.028-9.806-21.774-19.091c1.255-9.287,13.04-15.805,26.331-14.561
				C146.453,47.175,156.197,55.711,154.943,65.012z"/>
		</g>
		<g>
			<g>
				<radialGradient id="SVGID_17_" cx="50.6151" cy="52.0748" r="22.7498" gradientUnits="userSpaceOnUse">
					<stop  offset="0" style="stop-color:#EFF9FE"/>
					<stop  offset="0.0763" style="stop-color:#EAF7FE"/>
					<stop  offset="0.1636" style="stop-color:#DBF2FD"/>
					<stop  offset="0.2564" style="stop-color:#C3E9FB"/>
					<stop  offset="0.353" style="stop-color:#A0DDF9"/>
					<stop  offset="0.4525" style="stop-color:#6DCFF6"/>
					<stop  offset="0.5531" style="stop-color:#00C0F3"/>
					<stop  offset="0.6011" style="stop-color:#00B9F2"/>
					<stop  offset="0.6181" style="stop-color:#00BBF2"/>
					<stop  offset="0.6408" style="stop-color:#00BFF3"/>
					<stop  offset="0.6668" style="stop-color:#43C7F5"/>
					<stop  offset="0.6951" style="stop-color:#7ED3F7"/>
					<stop  offset="0.7249" style="stop-color:#B7E5FA"/>
					<stop  offset="0.7528" style="stop-color:#EFF9FE"/>
				</radialGradient>
				<path style="fill:url(#SVGID_17_);" d="M59.038,47.736c0.055,2.945-7.015,5.188-9.037,6.147
					c-2.929,1.389-5.762,3.088-6.589,6.452c-0.717,2.916,0.05,6.721,2.922,8.2c1.322,0.68,3.793,1.145,5.253,0.747
					C59.719,67.066,59.158,54.091,59.038,47.736z"/>
				<defs>
					<filter id="Adobe_OpacityMaskFilter_6_" filterUnits="userSpaceOnUse" x="45.532" y="49.749" width="13.013" height="13.162">
						<feColorMatrix  type="matrix" values="1 0 0 0 0  0 1 0 0 0  0 0 1 0 0  0 0 0 1 0"/>
					</filter>
				</defs>
				<mask maskUnits="userSpaceOnUse" x="45.532" y="49.749" width="13.013" height="13.162" id="SVGID_18_">
					<g style="filter:url(#Adobe_OpacityMaskFilter_6_);">
						
							<linearGradient id="SVGID_19_" gradientUnits="userSpaceOnUse" x1="-116.4286" y1="-102.8966" x2="-115.8674" y2="-99.1089" gradientTransform="matrix(-3.4852 -0.8147 0.7024 -3.3872 -298.3642 -381.9006)">
							<stop  offset="0" style="stop-color:#FFFFFF"/>
							<stop  offset="0.0513" style="stop-color:#E9EAEB"/>
							<stop  offset="0.2024" style="stop-color:#B6B8BB"/>
							<stop  offset="0.3526" style="stop-color:#8D8F92"/>
							<stop  offset="0.4982" style="stop-color:#6D6E71"/>
							<stop  offset="0.6384" style="stop-color:#515254"/>
							<stop  offset="0.7718" style="stop-color:#363637"/>
							<stop  offset="0.8954" style="stop-color:#141314"/>
							<stop  offset="1" style="stop-color:#000000"/>
						</linearGradient>
						<polygon style="fill:url(#SVGID_19_);" points="26.323,46.051 45.142,47.236 44.719,62.475 25.901,61.292 						"/>
					</g>
				</mask>
				<path style="opacity:0.2;mask:url(#SVGID_18_);fill:#FFFFFF;" d="M58.106,59.15c0.564-3.347,0.439-6.968,0.394-9.401
					c0.044,2.405-5.73,4.237-7.381,5.02c-2.392,1.135-4.706,2.522-5.381,5.27c-0.217,0.882-0.267,1.863-0.126,2.81
					c0.511,0.041,1.03,0.062,1.556,0.062C51.616,62.91,55.574,61.438,58.106,59.15z"/>
				<defs>
					<filter id="Adobe_OpacityMaskFilter_7_" filterUnits="userSpaceOnUse" x="43.382" y="54.754" width="8.892" height="8.459">
						<feColorMatrix  type="matrix" values="1 0 0 0 0  0 1 0 0 0  0 0 1 0 0  0 0 0 1 0"/>
					</filter>
				</defs>
				<mask maskUnits="userSpaceOnUse" x="43.382" y="54.754" width="8.892" height="8.459" id="SVGID_20_">
					<g style="filter:url(#Adobe_OpacityMaskFilter_7_);">
						
							<linearGradient id="SVGID_21_" gradientUnits="userSpaceOnUse" x1="269.3189" y1="316.6667" x2="269.6607" y2="318.9741" gradientTransform="matrix(3.2859 -2.3034 1.262 2.6925 -1256.4116 -179.2142)">
							<stop  offset="0" style="stop-color:#FFFFFF"/>
							<stop  offset="1" style="stop-color:#000000"/>
						</linearGradient>
						<polygon style="fill:url(#SVGID_21_);" points="37.654,54.625 27.906,63.43 23.086,57.396 32.833,48.591 						"/>
					</g>
				</mask>
				<path style="mask:url(#SVGID_20_);fill:#FFFFFF;" d="M51.949,55.614c0.919,1.411-0.181,4.062-2.457,5.925
					c-2.275,1.861-4.866,2.225-5.786,0.815c-0.919-1.41,0.18-4.063,2.456-5.926C48.44,54.567,51.028,54.202,51.949,55.614z"/>
				<defs>
					<filter id="Adobe_OpacityMaskFilter_8_" filterUnits="userSpaceOnUse" x="43.546" y="60.191" width="11.5" height="8.728">
						<feColorMatrix  type="matrix" values="1 0 0 0 0  0 1 0 0 0  0 0 1 0 0  0 0 0 1 0"/>
					</filter>
				</defs>
				<mask maskUnits="userSpaceOnUse" x="43.546" y="60.191" width="11.5" height="8.728" id="SVGID_22_">
					<g style="filter:url(#Adobe_OpacityMaskFilter_8_);">
						
							<linearGradient id="SVGID_23_" gradientUnits="userSpaceOnUse" x1="163.3505" y1="-22.4745" x2="163.7425" y2="-19.8288" gradientTransform="matrix(-3.5161 -1.6728 1.692 -3.0647 642.1728 271.212)">
							<stop  offset="0" style="stop-color:#FFFFFF"/>
							<stop  offset="1" style="stop-color:#000000"/>
						</linearGradient>
						<polygon style="fill:url(#SVGID_23_);" points="26.164,54.933 40.047,59.092 36.783,69.213 22.9,65.056 						"/>
					</g>
				</mask>
				<path style="opacity:0.5;mask:url(#SVGID_22_);fill:#FFFFFF;" d="M43.771,62.523c0.876-2.133,4.06-2.95,7.113-1.829
					c3.051,1.121,4.814,3.761,3.938,5.893c-0.875,2.132-4.059,2.951-7.113,1.831C44.658,67.293,42.895,64.657,43.771,62.523z"/>
			</g>
			<g>
				<radialGradient id="SVGID_24_" cx="27.9581" cy="69.6941" r="11.9202" gradientUnits="userSpaceOnUse">
					<stop  offset="0" style="stop-color:#EFF9FE"/>
					<stop  offset="0.0763" style="stop-color:#EAF7FE"/>
					<stop  offset="0.1636" style="stop-color:#DBF2FD"/>
					<stop  offset="0.2564" style="stop-color:#C3E9FB"/>
					<stop  offset="0.353" style="stop-color:#A0DDF9"/>
					<stop  offset="0.4525" style="stop-color:#6DCFF6"/>
					<stop  offset="0.5531" style="stop-color:#00C0F3"/>
					<stop  offset="0.6011" style="stop-color:#00B9F2"/>
					<stop  offset="0.6181" style="stop-color:#00BBF2"/>
					<stop  offset="0.6408" style="stop-color:#00BFF3"/>
					<stop  offset="0.6668" style="stop-color:#43C7F5"/>
					<stop  offset="0.6951" style="stop-color:#7ED3F7"/>
					<stop  offset="0.7249" style="stop-color:#B7E5FA"/>
					<stop  offset="0.7528" style="stop-color:#EFF9FE"/>
				</radialGradient>
				<path style="fill:url(#SVGID_24_);" d="M32.372,67.421c0.029,1.543-3.676,2.719-4.735,3.221
					c-1.535,0.728-3.019,1.618-3.453,3.38c-0.375,1.528,0.026,3.521,1.531,4.296c0.692,0.357,1.987,0.601,2.753,0.392
					C32.728,77.549,32.435,70.751,32.372,67.421z"/>
				<defs>
					<filter id="Adobe_OpacityMaskFilter_9_" filterUnits="userSpaceOnUse" x="25.295" y="68.475" width="6.818" height="6.897">
						<feColorMatrix  type="matrix" values="1 0 0 0 0  0 1 0 0 0  0 0 1 0 0  0 0 0 1 0"/>
					</filter>
				</defs>
				<mask maskUnits="userSpaceOnUse" x="25.295" y="68.475" width="6.818" height="6.897" id="SVGID_25_">
					<g style="filter:url(#Adobe_OpacityMaskFilter_9_);">
						
							<linearGradient id="SVGID_26_" gradientUnits="userSpaceOnUse" x1="-110.638" y1="-107.7936" x2="-110.3439" y2="-105.8089" gradientTransform="matrix(-3.4852 -0.8147 0.7024 -3.3872 -298.3642 -381.9006)">
							<stop  offset="0" style="stop-color:#FFFFFF"/>
							<stop  offset="0.0513" style="stop-color:#E9EAEB"/>
							<stop  offset="0.2024" style="stop-color:#B6B8BB"/>
							<stop  offset="0.3526" style="stop-color:#8D8F92"/>
							<stop  offset="0.4982" style="stop-color:#6D6E71"/>
							<stop  offset="0.6384" style="stop-color:#515254"/>
							<stop  offset="0.7718" style="stop-color:#363637"/>
							<stop  offset="0.8954" style="stop-color:#141314"/>
							<stop  offset="1" style="stop-color:#000000"/>
						</linearGradient>
						<polygon style="fill:url(#SVGID_26_);" points="6.898,65.267 16.759,65.888 16.537,73.873 6.677,73.253 						"/>
					</g>
				</mask>
				<path style="opacity:0.2;mask:url(#SVGID_25_);fill:#FFFFFF;" d="M31.883,73.401c0.296-1.754,0.231-3.651,0.206-4.926
					c0.023,1.26-3.002,2.22-3.867,2.63c-1.254,0.595-2.466,1.321-2.82,2.762c-0.113,0.461-0.14,0.977-0.066,1.472
					c0.268,0.021,0.539,0.033,0.816,0.033C28.482,75.372,30.557,74.6,31.883,73.401z"/>
				<defs>
					<filter id="Adobe_OpacityMaskFilter_10_" filterUnits="userSpaceOnUse" x="24.168" y="71.098" width="4.659" height="4.432">
						<feColorMatrix  type="matrix" values="1 0 0 0 0  0 1 0 0 0  0 0 1 0 0  0 0 0 1 0"/>
					</filter>
				</defs>
				<mask maskUnits="userSpaceOnUse" x="24.168" y="71.098" width="4.659" height="4.432" id="SVGID_27_">
					<g style="filter:url(#Adobe_OpacityMaskFilter_10_);">
						
							<linearGradient id="SVGID_28_" gradientUnits="userSpaceOnUse" x1="262.9623" y1="317.1263" x2="263.1414" y2="318.3353" gradientTransform="matrix(3.2859 -2.3034 1.262 2.6925 -1256.4116 -179.2142)">
							<stop  offset="0" style="stop-color:#FFFFFF"/>
							<stop  offset="1" style="stop-color:#000000"/>
						</linearGradient>
						<polygon style="fill:url(#SVGID_28_);" points="12.835,69.759 7.728,74.373 5.202,71.212 10.31,66.599 						"/>
					</g>
				</mask>
				<path style="mask:url(#SVGID_27_);fill:#FFFFFF;" d="M28.657,71.548c0.482,0.74-0.095,2.129-1.287,3.105
					c-1.192,0.976-2.55,1.166-3.032,0.427c-0.482-0.738,0.094-2.128,1.286-3.105C26.818,71,28.174,70.808,28.657,71.548z"/>
				<defs>
					<filter id="Adobe_OpacityMaskFilter_11_" filterUnits="userSpaceOnUse" x="24.254" y="73.947" width="6.026" height="4.573">
						<feColorMatrix  type="matrix" values="1 0 0 0 0  0 1 0 0 0  0 0 1 0 0  0 0 0 1 0"/>
					</filter>
				</defs>
				<mask maskUnits="userSpaceOnUse" x="24.254" y="73.947" width="6.026" height="4.573" id="SVGID_29_">
					<g style="filter:url(#Adobe_OpacityMaskFilter_11_);">
						
							<linearGradient id="SVGID_30_" gradientUnits="userSpaceOnUse" x1="166.9383" y1="-27.4744" x2="167.1436" y2="-26.0883" gradientTransform="matrix(-3.5161 -1.6728 1.692 -3.0647 642.1728 271.212)">
							<stop  offset="0" style="stop-color:#FFFFFF"/>
							<stop  offset="1" style="stop-color:#000000"/>
						</linearGradient>
						<polygon style="fill:url(#SVGID_30_);" points="6.815,69.921 14.089,72.101 12.379,77.404 5.104,75.225 						"/>
					</g>
				</mask>
				<path style="opacity:0.5;mask:url(#SVGID_29_);fill:#FFFFFF;" d="M24.372,75.168c0.459-1.118,2.128-1.545,3.727-0.958
					c1.599,0.587,2.522,1.971,2.063,3.087c-0.459,1.118-2.127,1.547-3.727,0.96C24.836,77.668,23.913,76.287,24.372,75.168z"/>
			</g>
			<g>
				<radialGradient id="SVGID_31_" cx="11.9762" cy="47.4311" r="8.9407" gradientUnits="userSpaceOnUse">
					<stop  offset="0" style="stop-color:#EFF9FE"/>
					<stop  offset="0.0763" style="stop-color:#EAF7FE"/>
					<stop  offset="0.1636" style="stop-color:#DBF2FD"/>
					<stop  offset="0.2564" style="stop-color:#C3E9FB"/>
					<stop  offset="0.353" style="stop-color:#A0DDF9"/>
					<stop  offset="0.4525" style="stop-color:#6DCFF6"/>
					<stop  offset="0.5531" style="stop-color:#00C0F3"/>
					<stop  offset="0.6011" style="stop-color:#00B9F2"/>
					<stop  offset="0.6181" style="stop-color:#00BBF2"/>
					<stop  offset="0.6408" style="stop-color:#00BFF3"/>
					<stop  offset="0.6668" style="stop-color:#43C7F5"/>
					<stop  offset="0.6951" style="stop-color:#7ED3F7"/>
					<stop  offset="0.7249" style="stop-color:#B7E5FA"/>
					<stop  offset="0.7528" style="stop-color:#EFF9FE"/>
				</radialGradient>
				<path style="fill:url(#SVGID_31_);" d="M15.287,45.726c0.021,1.157-2.757,2.039-3.552,2.416
					c-1.151,0.546-2.264,1.214-2.59,2.536c-0.282,1.146,0.02,2.641,1.149,3.222c0.519,0.268,1.49,0.45,2.064,0.294
					C15.554,53.323,15.334,48.224,15.287,45.726z"/>
				<defs>
					<filter id="Adobe_OpacityMaskFilter_12_" filterUnits="userSpaceOnUse" x="9.979" y="46.517" width="5.114" height="5.173">
						<feColorMatrix  type="matrix" values="1 0 0 0 0  0 1 0 0 0  0 0 1 0 0  0 0 0 1 0"/>
					</filter>
				</defs>
				<mask maskUnits="userSpaceOnUse" x="9.979" y="46.517" width="5.114" height="5.173" id="SVGID_32_">
					<g style="filter:url(#Adobe_OpacityMaskFilter_12_);">
						
							<linearGradient id="SVGID_33_" gradientUnits="userSpaceOnUse" x1="-104.8385" y1="-102.1486" x2="-104.618" y2="-100.66" gradientTransform="matrix(-3.4852 -0.8147 0.7024 -3.3872 -298.3642 -381.9006)">
							<stop  offset="0" style="stop-color:#FFFFFF"/>
							<stop  offset="0.0513" style="stop-color:#E9EAEB"/>
							<stop  offset="0.2024" style="stop-color:#B6B8BB"/>
							<stop  offset="0.3526" style="stop-color:#8D8F92"/>
							<stop  offset="0.4982" style="stop-color:#6D6E71"/>
							<stop  offset="0.6384" style="stop-color:#515254"/>
							<stop  offset="0.7718" style="stop-color:#363637"/>
							<stop  offset="0.8954" style="stop-color:#141314"/>
							<stop  offset="1" style="stop-color:#000000"/>
						</linearGradient>
						<polygon style="fill:url(#SVGID_33_);" points="-8.194,43.444 -0.799,43.909 -0.965,49.898 -8.36,49.433 						"/>
					</g>
				</mask>
				<path style="opacity:0.2;mask:url(#SVGID_32_);fill:#FFFFFF;" d="M14.92,50.211c0.222-1.316,0.173-2.739,0.155-3.695
					c0.018,0.946-2.252,1.665-2.901,1.973c-0.941,0.446-1.85,0.991-2.115,2.072c-0.085,0.346-0.105,0.733-0.049,1.104
					c0.201,0.016,0.405,0.024,0.612,0.024C12.37,51.689,13.925,51.11,14.92,50.211z"/>
				<defs>
					<filter id="Adobe_OpacityMaskFilter_13_" filterUnits="userSpaceOnUse" x="9.134" y="48.484" width="3.494" height="3.324">
						<feColorMatrix  type="matrix" values="1 0 0 0 0  0 1 0 0 0  0 0 1 0 0  0 0 0 1 0"/>
					</filter>
				</defs>
				<mask maskUnits="userSpaceOnUse" x="9.134" y="48.484" width="3.494" height="3.324" id="SVGID_34_">
					<g style="filter:url(#Adobe_OpacityMaskFilter_13_);">
						
							<linearGradient id="SVGID_35_" gradientUnits="userSpaceOnUse" x1="261.8912" y1="307.7635" x2="262.0256" y2="308.6703" gradientTransform="matrix(3.2859 -2.3034 1.262 2.6925 -1256.4116 -179.2142)">
							<stop  offset="0" style="stop-color:#FFFFFF"/>
							<stop  offset="1" style="stop-color:#000000"/>
						</linearGradient>
						<polygon style="fill:url(#SVGID_35_);" points="-3.741,46.813 -7.572,50.274 -9.466,47.902 -5.636,44.442 						"/>
					</g>
				</mask>
				<path style="mask:url(#SVGID_34_);fill:#FFFFFF;" d="M12.5,48.821c0.361,0.555-0.071,1.597-0.965,2.329
					c-0.894,0.732-1.913,0.875-2.274,0.321c-0.361-0.554,0.071-1.596,0.965-2.329C11.121,48.411,12.138,48.267,12.5,48.821z"/>
				<defs>
					<filter id="Adobe_OpacityMaskFilter_14_" filterUnits="userSpaceOnUse" x="9.198" y="50.62" width="4.52" height="3.43">
						<feColorMatrix  type="matrix" values="1 0 0 0 0  0 1 0 0 0  0 0 1 0 0  0 0 0 1 0"/>
					</filter>
				</defs>
				<mask maskUnits="userSpaceOnUse" x="9.198" y="50.62" width="4.52" height="3.43" id="SVGID_36_">
					<g style="filter:url(#Adobe_OpacityMaskFilter_14_);">
						
							<linearGradient id="SVGID_37_" gradientUnits="userSpaceOnUse" x1="173.4924" y1="-23.0426" x2="173.6464" y2="-22.003" gradientTransform="matrix(-3.5161 -1.6728 1.692 -3.0647 642.1728 271.212)">
							<stop  offset="0" style="stop-color:#FFFFFF"/>
							<stop  offset="1" style="stop-color:#000000"/>
						</linearGradient>
						<polygon style="fill:url(#SVGID_37_);" points="-8.257,46.935 -2.8,48.57 -4.084,52.547 -9.54,50.913 						"/>
					</g>
				</mask>
				<path style="opacity:0.5;mask:url(#SVGID_36_);fill:#FFFFFF;" d="M9.286,51.537c0.345-0.838,1.596-1.159,2.796-0.719
					c1.199,0.441,1.892,1.478,1.548,2.316c-0.344,0.838-1.596,1.16-2.795,0.72C9.635,53.411,8.942,52.376,9.286,51.537z"/>
			</g>
			<g>
				<radialGradient id="SVGID_38_" cx="39.4545" cy="46.8055" r="13.4109" gradientUnits="userSpaceOnUse">
					<stop  offset="0" style="stop-color:#EFF9FE"/>
					<stop  offset="0.0763" style="stop-color:#EAF7FE"/>
					<stop  offset="0.1636" style="stop-color:#DBF2FD"/>
					<stop  offset="0.2564" style="stop-color:#C3E9FB"/>
					<stop  offset="0.353" style="stop-color:#A0DDF9"/>
					<stop  offset="0.4525" style="stop-color:#6DCFF6"/>
					<stop  offset="0.5531" style="stop-color:#00C0F3"/>
					<stop  offset="0.6011" style="stop-color:#00B9F2"/>
					<stop  offset="0.6181" style="stop-color:#00BBF2"/>
					<stop  offset="0.6408" style="stop-color:#00BFF3"/>
					<stop  offset="0.6668" style="stop-color:#43C7F5"/>
					<stop  offset="0.6951" style="stop-color:#7ED3F7"/>
					<stop  offset="0.7249" style="stop-color:#B7E5FA"/>
					<stop  offset="0.7528" style="stop-color:#EFF9FE"/>
				</radialGradient>
				<path style="fill:url(#SVGID_38_);" d="M44.42,44.248c0.033,1.736-4.135,3.058-5.327,3.624c-1.727,0.818-3.397,1.82-3.885,3.803
					c-0.422,1.719,0.03,3.961,1.723,4.833c0.779,0.401,2.235,0.675,3.097,0.44C44.821,55.643,44.491,47.995,44.42,44.248z"/>
				<defs>
					<filter id="Adobe_OpacityMaskFilter_15_" filterUnits="userSpaceOnUse" x="36.458" y="45.434" width="7.671" height="7.759">
						<feColorMatrix  type="matrix" values="1 0 0 0 0  0 1 0 0 0  0 0 1 0 0  0 0 0 1 0"/>
					</filter>
				</defs>
				<mask maskUnits="userSpaceOnUse" x="36.458" y="45.434" width="7.671" height="7.759" id="SVGID_39_">
					<g style="filter:url(#Adobe_OpacityMaskFilter_15_);">
						
							<linearGradient id="SVGID_40_" gradientUnits="userSpaceOnUse" x1="-112.5664" y1="-100.8059" x2="-112.2357" y2="-98.5733" gradientTransform="matrix(-3.4852 -0.8147 0.7024 -3.3872 -298.3642 -381.9006)">
							<stop  offset="0" style="stop-color:#FFFFFF"/>
							<stop  offset="0.0513" style="stop-color:#E9EAEB"/>
							<stop  offset="0.2024" style="stop-color:#B6B8BB"/>
							<stop  offset="0.3526" style="stop-color:#8D8F92"/>
							<stop  offset="0.4982" style="stop-color:#6D6E71"/>
							<stop  offset="0.6384" style="stop-color:#515254"/>
							<stop  offset="0.7718" style="stop-color:#363637"/>
							<stop  offset="0.8954" style="stop-color:#141314"/>
							<stop  offset="1" style="stop-color:#000000"/>
						</linearGradient>
						<polygon style="fill:url(#SVGID_40_);" points="17.95,42.159 29.043,42.858 28.794,51.841 17.701,51.143 						"/>
					</g>
				</mask>
				<path style="opacity:0.2;mask:url(#SVGID_39_);fill:#FFFFFF;" d="M43.871,50.976c0.333-1.973,0.258-4.107,0.232-5.542
					c0.026,1.418-3.378,2.498-4.351,2.959c-1.411,0.669-2.775,1.487-3.173,3.107c-0.127,0.519-0.157,1.099-0.074,1.656
					c0.301,0.023,0.607,0.037,0.917,0.037C40.045,53.193,42.378,52.324,43.871,50.976z"/>
				<defs>
					<filter id="Adobe_OpacityMaskFilter_16_" filterUnits="userSpaceOnUse" x="35.191" y="48.385" width="5.242" height="4.986">
						<feColorMatrix  type="matrix" values="1 0 0 0 0  0 1 0 0 0  0 0 1 0 0  0 0 0 1 0"/>
					</filter>
				</defs>
				<mask maskUnits="userSpaceOnUse" x="35.191" y="48.385" width="5.242" height="4.986" id="SVGID_41_">
					<g style="filter:url(#Adobe_OpacityMaskFilter_16_);">
						
							<linearGradient id="SVGID_42_" gradientUnits="userSpaceOnUse" x1="267.9535" y1="312.9841" x2="268.155" y2="314.3443" gradientTransform="matrix(3.2859 -2.3034 1.262 2.6925 -1256.4116 -179.2142)">
							<stop  offset="0" style="stop-color:#FFFFFF"/>
							<stop  offset="1" style="stop-color:#000000"/>
						</linearGradient>
						<polygon style="fill:url(#SVGID_42_);" points="24.629,47.212 18.883,52.403 16.042,48.847 21.788,43.656 						"/>
					</g>
				</mask>
				<path style="mask:url(#SVGID_41_);fill:#FFFFFF;" d="M40.241,48.892c0.542,0.832-0.107,2.394-1.448,3.493
					c-1.341,1.097-2.869,1.312-3.411,0.48c-0.542-0.83,0.105-2.395,1.447-3.493C38.172,48.275,39.698,48.06,40.241,48.892z"/>
				<defs>
					<filter id="Adobe_OpacityMaskFilter_17_" filterUnits="userSpaceOnUse" x="35.287" y="51.59" width="6.779" height="5.145">
						<feColorMatrix  type="matrix" values="1 0 0 0 0  0 1 0 0 0  0 0 1 0 0  0 0 0 1 0"/>
					</filter>
				</defs>
				<mask maskUnits="userSpaceOnUse" x="35.287" y="51.59" width="6.779" height="5.145" id="SVGID_43_">
					<g style="filter:url(#Adobe_OpacityMaskFilter_17_);">
						
							<linearGradient id="SVGID_44_" gradientUnits="userSpaceOnUse" x1="167.1021" y1="-20.468" x2="167.3331" y2="-18.9087" gradientTransform="matrix(-3.5161 -1.6728 1.692 -3.0647 642.1728 271.212)">
							<stop  offset="0" style="stop-color:#FFFFFF"/>
							<stop  offset="1" style="stop-color:#000000"/>
						</linearGradient>
						<polygon style="fill:url(#SVGID_44_);" points="17.856,47.395 26.04,49.848 24.116,55.813 15.932,53.362 						"/>
					</g>
				</mask>
				<path style="opacity:0.5;mask:url(#SVGID_43_);fill:#FFFFFF;" d="M35.42,52.964c0.517-1.257,2.393-1.738,4.193-1.078
					c1.798,0.662,2.837,2.217,2.321,3.474c-0.516,1.257-2.393,1.74-4.193,1.08C35.943,55.776,34.903,54.223,35.42,52.964z"/>
			</g>
			<g>
				<radialGradient id="SVGID_45_" cx="20.701" cy="50.2559" r="20.8603" gradientUnits="userSpaceOnUse">
					<stop  offset="0" style="stop-color:#EFF9FE"/>
					<stop  offset="0.0763" style="stop-color:#EAF7FE"/>
					<stop  offset="0.1636" style="stop-color:#DBF2FD"/>
					<stop  offset="0.2564" style="stop-color:#C3E9FB"/>
					<stop  offset="0.353" style="stop-color:#A0DDF9"/>
					<stop  offset="0.4525" style="stop-color:#6DCFF6"/>
					<stop  offset="0.5531" style="stop-color:#00C0F3"/>
					<stop  offset="0.6011" style="stop-color:#00B9F2"/>
					<stop  offset="0.6181" style="stop-color:#00BBF2"/>
					<stop  offset="0.6408" style="stop-color:#00BFF3"/>
					<stop  offset="0.6668" style="stop-color:#43C7F5"/>
					<stop  offset="0.6951" style="stop-color:#7ED3F7"/>
					<stop  offset="0.7249" style="stop-color:#B7E5FA"/>
					<stop  offset="0.7528" style="stop-color:#EFF9FE"/>
				</radialGradient>
				<path style="fill:url(#SVGID_45_);" d="M28.425,46.278c0.05,2.7-6.433,4.757-8.287,5.636c-2.687,1.273-5.284,2.831-6.042,5.916
					c-0.657,2.674,0.046,6.162,2.68,7.518c1.212,0.624,3.478,1.05,4.817,0.686C29.049,64.002,28.535,52.105,28.425,46.278z"/>
				<defs>
					<filter id="Adobe_OpacityMaskFilter_18_" filterUnits="userSpaceOnUse" x="16.04" y="48.122" width="11.932" height="12.07">
						<feColorMatrix  type="matrix" values="1 0 0 0 0  0 1 0 0 0  0 0 1 0 0  0 0 0 1 0"/>
					</filter>
				</defs>
				<mask maskUnits="userSpaceOnUse" x="16.04" y="48.122" width="11.932" height="12.07" id="SVGID_46_">
					<g style="filter:url(#Adobe_OpacityMaskFilter_18_);">
						
							<linearGradient id="SVGID_47_" gradientUnits="userSpaceOnUse" x1="-108.036" y1="-104.0819" x2="-107.5214" y2="-100.6088" gradientTransform="matrix(-3.4852 -0.8147 0.7024 -3.3872 -298.3642 -381.9006)">
							<stop  offset="0" style="stop-color:#FFFFFF"/>
							<stop  offset="0.0513" style="stop-color:#E9EAEB"/>
							<stop  offset="0.2024" style="stop-color:#B6B8BB"/>
							<stop  offset="0.3526" style="stop-color:#8D8F92"/>
							<stop  offset="0.4982" style="stop-color:#6D6E71"/>
							<stop  offset="0.6384" style="stop-color:#515254"/>
							<stop  offset="0.7718" style="stop-color:#363637"/>
							<stop  offset="0.8954" style="stop-color:#141314"/>
							<stop  offset="1" style="stop-color:#000000"/>
						</linearGradient>
						<polygon style="fill:url(#SVGID_47_);" points="-3.027,44.51 14.229,45.597 13.841,59.571 -3.414,58.485 						"/>
					</g>
				</mask>
				<path style="opacity:0.2;mask:url(#SVGID_46_);fill:#FFFFFF;" d="M27.571,56.743c0.517-3.069,0.402-6.39,0.36-8.621
					c0.041,2.206-5.254,3.885-6.769,4.604c-2.193,1.04-4.315,2.312-4.935,4.832c-0.199,0.809-0.245,1.709-0.115,2.577
					c0.468,0.037,0.944,0.058,1.426,0.058C21.619,60.192,25.248,58.84,27.571,56.743z"/>
				<defs>
					<filter id="Adobe_OpacityMaskFilter_19_" filterUnits="userSpaceOnUse" x="14.068" y="52.712" width="8.154" height="7.756">
						<feColorMatrix  type="matrix" values="1 0 0 0 0  0 1 0 0 0  0 0 1 0 0  0 0 0 1 0"/>
					</filter>
				</defs>
				<mask maskUnits="userSpaceOnUse" x="14.068" y="52.712" width="8.154" height="7.756" id="SVGID_48_">
					<g style="filter:url(#Adobe_OpacityMaskFilter_19_);">
						
							<linearGradient id="SVGID_49_" gradientUnits="userSpaceOnUse" x1="262.7883" y1="310.2914" x2="263.1018" y2="312.4072" gradientTransform="matrix(3.2859 -2.3034 1.262 2.6925 -1256.4116 -179.2142)">
							<stop  offset="0" style="stop-color:#FFFFFF"/>
							<stop  offset="1" style="stop-color:#000000"/>
						</linearGradient>
						<polygon style="fill:url(#SVGID_49_);" points="7.362,52.372 -1.576,60.446 -5.996,54.914 2.942,46.839 						"/>
					</g>
				</mask>
				<path style="mask:url(#SVGID_48_);fill:#FFFFFF;" d="M21.924,53.5c0.843,1.294-0.167,3.725-2.253,5.433
					c-2.086,1.707-4.462,2.04-5.305,0.747c-0.843-1.292,0.165-3.725,2.251-5.433C18.706,52.542,21.079,52.206,21.924,53.5z"/>
				<defs>
					<filter id="Adobe_OpacityMaskFilter_20_" filterUnits="userSpaceOnUse" x="14.219" y="57.698" width="10.546" height="8.003">
						<feColorMatrix  type="matrix" values="1 0 0 0 0  0 1 0 0 0  0 0 1 0 0  0 0 0 1 0"/>
					</filter>
				</defs>
				<mask maskUnits="userSpaceOnUse" x="14.219" y="57.698" width="10.546" height="8.003" id="SVGID_50_">
					<g style="filter:url(#Adobe_OpacityMaskFilter_20_);">
						
							<linearGradient id="SVGID_51_" gradientUnits="userSpaceOnUse" x1="170.4325" y1="-25.2741" x2="170.7919" y2="-22.8483" gradientTransform="matrix(-3.5161 -1.6728 1.692 -3.0647 642.1728 271.212)">
							<stop  offset="0" style="stop-color:#FFFFFF"/>
							<stop  offset="1" style="stop-color:#000000"/>
						</linearGradient>
						<polygon style="fill:url(#SVGID_51_);" points="-3.173,52.655 9.557,56.469 6.564,65.75 -6.166,61.937 						"/>
					</g>
				</mask>
				<path style="opacity:0.5;mask:url(#SVGID_50_);fill:#FFFFFF;" d="M14.425,59.835c0.804-1.956,3.723-2.704,6.522-1.677
					c2.798,1.028,4.414,3.449,3.611,5.403c-0.803,1.955-3.723,2.706-6.523,1.679C15.239,64.21,13.622,61.793,14.425,59.835z"/>
			</g>
		</g>
		
			<radialGradient id="SVGID_52_" cx="55.231" cy="615.9223" r="75.3907" gradientTransform="matrix(1.3106 0 0 0.3571 26.4145 -83.919)" gradientUnits="userSpaceOnUse">
			<stop  offset="0.0056" style="stop-color:#A7A9AC"/>
			<stop  offset="1" style="stop-color:#FFFFFF"/>
		</radialGradient>
		<ellipse style="fill:url(#SVGID_52_);" cx="98.8" cy="136.027" rx="98.8" ry="26.924"/>
	</g>
</g>
<g id="Layer_1">
</g>
</svg>
