<?xml version="1.0" encoding="iso-8859-1"?>
<!-- Generator: Adobe Illustrator 19.0.0, SVG Export Plug-In . SVG Version: 6.00 Build 0)  -->
<svg version="1.1" xmlns="http://www.w3.org/2000/svg" xmlns:xlink="http://www.w3.org/1999/xlink" x="0px" y="0px"
	 viewBox="0 0 197.6 176.091" style="enable-background:new 0 0 197.6 176.091;" xml:space="preserve">
<g id="snow">
	<g>
		
			<radialGradient id="SVGID_1_" cx="55.2307" cy="640.1168" r="75.3904" gradientTransform="matrix(1.3106 0 0 0.3571 26.4145 -79.4187)" gradientUnits="userSpaceOnUse">
			<stop  offset="0.0056" style="stop-color:#A7A9AC"/>
			<stop  offset="1" style="stop-color:#FFFFFF"/>
		</radialGradient>
		<ellipse style="fill:url(#SVGID_1_);" cx="98.8" cy="149.167" rx="98.8" ry="26.924"/>
		<g>
			<g>
				
					<radialGradient id="SVGID_2_" cx="66.6484" cy="-55.4945" r="17.6969" gradientTransform="matrix(0.9934 0.1145 -0.1145 0.9934 8.2404 170.9609)" gradientUnits="userSpaceOnUse">
					<stop  offset="0.5169" style="stop-color:#7ED3F7"/>
					<stop  offset="0.629" style="stop-color:#84D5F7"/>
					<stop  offset="0.7601" style="stop-color:#95DAF8"/>
					<stop  offset="0.9001" style="stop-color:#B0E2FA"/>
					<stop  offset="1" style="stop-color:#C7EAFB"/>
				</radialGradient>
				<path style="fill:url(#SVGID_2_);" d="M101.891,137.586l-3.211-2.737l1.731-0.138c1.022-0.081,1.784-0.975,1.703-1.996
					c-0.082-1.021-0.976-1.784-1.997-1.703l-5.195,0.413c-0.075,0.006-0.148,0.018-0.22,0.032l-3.114-2.654l0.929-8.059l3.972-1.956
					c0.123,0.079,0.256,0.146,0.401,0.195l4.934,1.678c0.97,0.33,2.024-0.188,2.354-1.158c0.33-0.971-0.188-2.024-1.159-2.355
					l-1.891-0.644l3.951-1.944c0.939-0.461,1.326-1.598,0.864-2.537c-0.462-0.938-1.599-1.325-2.538-0.862l-3.785,1.863l0.56-1.644
					c0.331-0.971-0.188-2.025-1.159-2.355c-0.971-0.329-2.024,0.189-2.355,1.16l-1.678,4.934c-0.024,0.07-0.043,0.143-0.058,0.214
					l-3.908,1.925l-6.654-4.938l0.492-4.268c0.061-0.038,0.124-0.071,0.181-0.116l4.084-3.239c0.802-0.637,0.937-1.805,0.3-2.607
					c-0.637-0.803-1.805-0.937-2.607-0.301l-1.36,1.08l0.483-4.191c0.12-1.039-0.626-1.979-1.666-2.1
					c-1.039-0.119-1.979,0.626-2.1,1.666l-0.503,4.374l-1.242-1.564c-0.637-0.803-1.804-0.938-2.606-0.301
					c-0.803,0.637-0.938,1.805-0.3,2.607l3.238,4.083c0.094,0.118,0.204,0.218,0.318,0.308l-0.47,4.075l-8.025,3.477l-2.854-2.434
					c0.003-0.073,0.003-0.147-0.003-0.223l-0.413-5.194c-0.082-1.021-0.976-1.784-1.997-1.703c-1.022,0.081-1.784,0.976-1.703,1.997
					l0.138,1.73l-3.21-2.736c-0.796-0.679-1.993-0.585-2.672,0.212c-0.679,0.796-0.583,1.992,0.212,2.672l3.351,2.857l-1.991,0.157
					c-1.022,0.081-1.784,0.976-1.703,1.997c0.081,1.021,0.975,1.783,1.997,1.702l5.195-0.412c0.152-0.013,0.297-0.045,0.436-0.091
					l3.235,2.759l-0.94,8.163l-3.534,1.74c-0.066-0.032-0.134-0.062-0.205-0.086l-4.934-1.679c-0.97-0.329-2.024,0.189-2.354,1.159
					c-0.33,0.971,0.189,2.024,1.159,2.354l1.645,0.56l-3.786,1.863c-0.939,0.462-1.325,1.599-0.863,2.537
					c0.462,0.939,1.598,1.325,2.537,0.863l3.95-1.944l-0.643,1.891c-0.33,0.97,0.189,2.024,1.159,2.353
					c0.97,0.33,2.024-0.188,2.354-1.158l1.679-4.934c0.049-0.145,0.078-0.291,0.09-0.437l3.494-1.72l6.68,4.955l-0.405,3.515
					c-0.132,0.062-0.261,0.133-0.38,0.229l-4.082,3.237c-0.803,0.638-0.938,1.805-0.3,2.607c0.637,0.803,1.804,0.938,2.607,0.301
					l1.564-1.241l-0.504,4.374c-0.12,1.04,0.626,1.979,1.666,2.1c1.04,0.12,1.979-0.626,2.1-1.666l0.483-4.19l1.079,1.359
					c0.637,0.804,1.804,0.938,2.607,0.301c0.803-0.637,0.937-1.804,0.3-2.607l-3.239-4.082c-0.045-0.058-0.099-0.104-0.15-0.154
					l0.448-3.888l7.592-3.29l2.673,2.279c-0.023,0.145-0.032,0.293-0.02,0.445l0.414,5.195c0.081,1.021,0.975,1.784,1.997,1.703
					c1.022-0.083,1.784-0.977,1.703-1.998l-0.158-1.99l3.35,2.856c0.796,0.679,1.993,0.584,2.671-0.212
					C102.782,139.461,102.688,138.266,101.891,137.586z M75.299,119.18l6.852-2.969l5.996,4.449l-0.793,6.884
					c-0.024,0.025-0.049,0.05-0.072,0.077c-0.159,0.186-0.273,0.395-0.348,0.613l-6.165,2.671c-0.093-0.025-0.188-0.046-0.286-0.058
					c-0.108-0.013-0.216-0.014-0.321-0.008l-5.718-4.242L75.299,119.18z"/>
				<defs>
					<filter id="Adobe_OpacityMaskFilter" filterUnits="userSpaceOnUse" x="59.42" y="96.539" width="46.72" height="32.548">
						<feColorMatrix  type="matrix" values="1 0 0 0 0  0 1 0 0 0  0 0 1 0 0  0 0 0 1 0"/>
					</filter>
				</defs>
				<mask maskUnits="userSpaceOnUse" x="59.42" y="96.539" width="46.72" height="32.548" id="SVGID_3_">
					<g style="filter:url(#Adobe_OpacityMaskFilter);">
						
							<linearGradient id="SVGID_4_" gradientUnits="userSpaceOnUse" x1="-130.917" y1="-105.7212" x2="-129.4679" y2="-95.9398" gradientTransform="matrix(-3.3691 -1.2083 1.0855 -3.2845 -253.4663 -212.2226)">
							<stop  offset="0" style="stop-color:#FFFFFF"/>
							<stop  offset="1" style="stop-color:#000000"/>
						</linearGradient>
						<polygon style="fill:url(#SVGID_4_);" points="54.793,251.005 102.722,259.607 97.133,298.58 49.205,289.979 						"/>
					</g>
				</mask>
				<path style="mask:url(#SVGID_3_);fill:#FFFFFF;" d="M105.945,111.996c-0.463-0.938-1.598-1.324-2.538-0.861l-3.786,1.862
					l0.559-1.644c0.331-0.971-0.188-2.024-1.159-2.354c-0.97-0.33-2.024,0.188-2.355,1.159l-1.678,4.934
					c-0.024,0.071-0.042,0.144-0.058,0.215l-3.908,1.924l-6.654-4.938l0.492-4.268c0.061-0.038,0.124-0.07,0.181-0.116l4.083-3.239
					c0.802-0.637,0.937-1.804,0.3-2.606c-0.637-0.803-1.805-0.938-2.607-0.301l-1.36,1.079l0.483-4.19
					c0.12-1.04-0.627-1.979-1.666-2.1c-1.039-0.12-1.979,0.625-2.1,1.666l-0.504,4.374l-1.241-1.564
					c-0.637-0.803-1.804-0.938-2.607-0.301c-0.803,0.637-0.937,1.804-0.3,2.606l3.239,4.083c0.095,0.119,0.204,0.218,0.318,0.308
					l-0.47,4.076l-8.025,3.477l-2.854-2.435c0.003-0.073,0.003-0.147-0.003-0.223l-0.413-5.194
					c-0.082-1.021-0.976-1.783-1.997-1.703c-1.022,0.082-1.784,0.976-1.703,1.997l0.138,1.731l-3.211-2.737
					c-0.796-0.679-1.992-0.584-2.671,0.212c-0.679,0.797-0.584,1.993,0.212,2.672l3.35,2.856l-1.99,0.158
					c-1.022,0.082-1.784,0.976-1.703,1.997c0.081,1.021,0.975,1.784,1.997,1.703l5.195-0.413c0.152-0.013,0.297-0.044,0.436-0.09
					l3.235,2.759l-0.893,7.75c1.546-0.11,3.143-0.155,4.78-0.131l0.811-7.032l6.852-2.97l5.996,4.45l-0.793,6.885
					c-0.023,0.024-0.048,0.048-0.072,0.075c-0.039,0.046-0.068,0.099-0.103,0.147c1.658,0.387,3.253,0.838,4.774,1.345l-0.365-0.31
					l0.928-8.058l3.972-1.956c0.123,0.079,0.256,0.146,0.401,0.194l4.934,1.679c0.97,0.33,2.024-0.188,2.354-1.159
					c0.33-0.971-0.188-2.024-1.159-2.354l-1.891-0.643l3.951-1.945C106.021,114.072,106.407,112.936,105.945,111.996z"/>
			</g>
			<g>
				
					<radialGradient id="SVGID_5_" cx="90.1211" cy="-175.2533" r="11.4681" gradientTransform="matrix(0.9841 0.1774 -0.1774 0.9841 -1.9933 253.766)" gradientUnits="userSpaceOnUse">
					<stop  offset="0.5169" style="stop-color:#7ED3F7"/>
					<stop  offset="0.629" style="stop-color:#84D5F7"/>
					<stop  offset="0.7601" style="stop-color:#95DAF8"/>
					<stop  offset="0.9001" style="stop-color:#B0E2FA"/>
					<stop  offset="1" style="stop-color:#C7EAFB"/>
				</radialGradient>
				<path style="fill:url(#SVGID_5_);" d="M130.84,107.289l-1.963-1.903l1.125-0.018c0.664-0.01,1.194-0.557,1.184-1.221
					c-0.01-0.665-0.557-1.194-1.221-1.184l-3.377,0.054c-0.049,0-0.097,0.004-0.144,0.011l-1.904-1.845l0.934-5.173l2.649-1.102
					c0.076,0.056,0.16,0.105,0.251,0.143l3.121,1.289c0.615,0.253,1.317-0.039,1.57-0.652c0.254-0.614-0.038-1.317-0.651-1.571
					l-1.197-0.494l2.636-1.095c0.626-0.26,0.922-0.979,0.662-1.605c-0.261-0.626-0.979-0.923-1.605-0.662l-2.524,1.049l0.43-1.04
					c0.254-0.613-0.038-1.317-0.652-1.57c-0.614-0.253-1.316,0.039-1.57,0.653l-1.289,3.121c-0.019,0.045-0.033,0.09-0.046,0.136
					l-2.607,1.084l-4.099-3.468l0.493-2.739c0.041-0.022,0.083-0.041,0.122-0.067l2.774-1.927c0.545-0.379,0.681-1.129,0.301-1.675
					c-0.378-0.545-1.127-0.68-1.673-0.301l-0.925,0.643l0.485-2.691c0.12-0.668-0.322-1.306-0.99-1.426
					c-0.668-0.121-1.307,0.322-1.427,0.99l-0.506,2.809l-0.738-1.063c-0.38-0.546-1.129-0.681-1.674-0.302
					c-0.545,0.379-0.681,1.128-0.302,1.673l1.927,2.774c0.056,0.081,0.122,0.15,0.192,0.212l-0.471,2.617l-5.333,1.917l-1.746-1.691
					c0.005-0.047,0.008-0.095,0.008-0.144l-0.054-3.376c-0.011-0.665-0.557-1.194-1.221-1.185c-0.665,0.012-1.194,0.558-1.184,1.222
					l0.017,1.125l-1.962-1.902c-0.487-0.473-1.265-0.46-1.737,0.027c-0.472,0.486-0.46,1.264,0.027,1.736l2.049,1.985l-1.294,0.021
					c-0.664,0.011-1.194,0.558-1.184,1.221c0.01,0.665,0.557,1.194,1.221,1.184l3.376-0.053c0.1-0.001,0.195-0.017,0.286-0.04
					l1.979,1.917l-0.945,5.24l-2.357,0.979c-0.042-0.023-0.084-0.045-0.129-0.063l-3.122-1.289c-0.614-0.253-1.317,0.039-1.57,0.652
					c-0.253,0.614,0.039,1.317,0.653,1.571l1.04,0.43l-2.525,1.049c-0.626,0.26-0.923,0.979-0.663,1.605
					c0.26,0.627,0.979,0.923,1.605,0.663l2.635-1.095l-0.494,1.196c-0.253,0.614,0.039,1.316,0.653,1.57
					c0.614,0.254,1.316-0.039,1.569-0.652l1.289-3.121c0.038-0.092,0.062-0.186,0.076-0.278l2.331-0.969l4.115,3.48l-0.406,2.256
					c-0.088,0.033-0.175,0.075-0.256,0.132l-2.773,1.926c-0.545,0.379-0.68,1.129-0.302,1.674c0.379,0.545,1.129,0.68,1.674,0.301
					l1.063-0.737l-0.507,2.808c-0.12,0.668,0.323,1.307,0.991,1.427c0.667,0.12,1.306-0.323,1.427-0.991l0.484-2.69l0.643,0.924
					c0.378,0.546,1.127,0.682,1.673,0.302c0.546-0.378,0.68-1.128,0.302-1.673l-1.927-2.773c-0.027-0.04-0.06-0.071-0.091-0.106
					l0.45-2.495l5.046-1.815l1.635,1.584c-0.021,0.093-0.033,0.188-0.031,0.287l0.053,3.377c0.011,0.664,0.557,1.194,1.222,1.184
					c0.663-0.011,1.193-0.558,1.183-1.222l-0.019-1.294l2.049,1.985c0.486,0.473,1.265,0.46,1.736-0.027
					C131.34,108.538,131.327,107.761,130.84,107.289z M114.402,94.289l4.554-1.638l3.694,3.125l-0.796,4.419
					c-0.018,0.015-0.034,0.03-0.051,0.046c-0.109,0.114-0.193,0.245-0.25,0.383l-4.098,1.475c-0.059-0.021-0.119-0.039-0.182-0.051
					c-0.069-0.012-0.139-0.017-0.207-0.019l-3.523-2.979L114.402,94.289z"/>
				<defs>
					<filter id="Adobe_OpacityMaskFilter_1_" filterUnits="userSpaceOnUse" x="104.53" y="80.006" width="30.081" height="21.377">
						<feColorMatrix  type="matrix" values="1 0 0 0 0  0 1 0 0 0  0 0 1 0 0  0 0 0 1 0"/>
					</filter>
				</defs>
				<mask maskUnits="userSpaceOnUse" x="104.53" y="80.006" width="30.081" height="21.377" id="SVGID_6_">
					<g style="filter:url(#Adobe_OpacityMaskFilter_1_);">
						
							<linearGradient id="SVGID_7_" gradientUnits="userSpaceOnUse" x1="-133.1065" y1="-68.7786" x2="-132.1674" y2="-62.4402" gradientTransform="matrix(-3.2854 -1.4201 1.2922 -3.2088 -238.5317 -144.6603)">
							<stop  offset="0" style="stop-color:#FFFFFF"/>
							<stop  offset="1" style="stop-color:#000000"/>
						</linearGradient>
						<polygon style="fill:url(#SVGID_7_);" points="99.965,237.025 130.606,244.564 125.386,269.538 94.744,262 						"/>
					</g>
				</mask>
				<path style="mask:url(#SVGID_6_);fill:#FFFFFF;" d="M134.518,90.907c-0.261-0.627-0.979-0.924-1.606-0.663l-2.524,1.049
					l0.429-1.04c0.255-0.614-0.038-1.316-0.651-1.57c-0.614-0.254-1.317,0.039-1.571,0.652l-1.288,3.121
					c-0.019,0.046-0.032,0.092-0.046,0.138l-2.606,1.082l-4.1-3.467l0.493-2.739c0.042-0.022,0.083-0.041,0.123-0.068l2.773-1.927
					c0.545-0.378,0.681-1.128,0.302-1.673c-0.379-0.545-1.128-0.681-1.674-0.302l-0.924,0.642l0.484-2.69
					c0.121-0.667-0.323-1.306-0.99-1.426c-0.668-0.12-1.307,0.322-1.426,0.99l-0.507,2.808l-0.738-1.063
					c-0.379-0.545-1.128-0.68-1.674-0.302c-0.545,0.379-0.68,1.128-0.302,1.674l1.927,2.774c0.057,0.081,0.122,0.149,0.193,0.213
					l-0.473,2.616l-5.333,1.917l-1.745-1.691c0.005-0.047,0.008-0.095,0.007-0.144l-0.052-3.377
					c-0.011-0.663-0.559-1.193-1.222-1.184c-0.664,0.011-1.194,0.558-1.184,1.221l0.017,1.126l-1.962-1.902
					c-0.487-0.472-1.265-0.461-1.736,0.027c-0.472,0.487-0.46,1.264,0.027,1.735l2.049,1.985l-1.293,0.022
					c-0.665,0.011-1.194,0.557-1.183,1.221c0.01,0.664,0.557,1.194,1.221,1.184l3.377-0.054c0.099-0.001,0.193-0.016,0.285-0.039
					l1.979,1.917l-0.896,4.977c1.004-0.009,2.039,0.027,3.097,0.111l0.814-4.515l4.554-1.639l3.694,3.125l-0.797,4.42
					c-0.017,0.016-0.033,0.029-0.05,0.047c-0.026,0.027-0.048,0.061-0.072,0.092c1.056,0.318,2.069,0.675,3.032,1.065l-0.224-0.216
					l0.933-5.173l2.65-1.101c0.075,0.056,0.158,0.104,0.25,0.142l3.122,1.288c0.613,0.254,1.316-0.038,1.57-0.652
					c0.253-0.613-0.039-1.317-0.653-1.57l-1.195-0.494l2.635-1.095C134.48,92.251,134.777,91.533,134.518,90.907z"/>
			</g>
			<g>
				
					<radialGradient id="SVGID_8_" cx="-267.7011" cy="1088.6495" r="6.0179" gradientTransform="matrix(0.7665 -0.6422 0.6422 0.7665 -404.4212 -922.0342)" gradientUnits="userSpaceOnUse">
					<stop  offset="0.5169" style="stop-color:#7ED3F7"/>
					<stop  offset="0.629" style="stop-color:#84D5F7"/>
					<stop  offset="0.7601" style="stop-color:#95DAF8"/>
					<stop  offset="0.9001" style="stop-color:#B0E2FA"/>
					<stop  offset="1" style="stop-color:#C7EAFB"/>
				</radialGradient>
				<path style="fill:url(#SVGID_8_);" d="M97.936,82.433l-1.427,0.151l0.371-0.459c0.219-0.271,0.177-0.668-0.095-0.888
					c-0.271-0.219-0.668-0.176-0.887,0.096l-1.113,1.379c-0.016,0.02-0.03,0.04-0.044,0.061l-1.384,0.147l-1.771-2.114l0.446-1.438
					c0.048-0.012,0.096-0.029,0.142-0.054l1.568-0.825c0.309-0.161,0.427-0.543,0.265-0.851c-0.162-0.31-0.543-0.428-0.853-0.266
					l-0.601,0.315l0.444-1.43c0.106-0.34-0.084-0.7-0.424-0.807c-0.34-0.104-0.701,0.085-0.807,0.426l-0.426,1.369l-0.275-0.522
					c-0.162-0.309-0.543-0.428-0.852-0.265c-0.308,0.162-0.427,0.544-0.265,0.852l0.825,1.569c0.012,0.022,0.025,0.043,0.039,0.063
					l-0.439,1.415L87.6,80.847l-0.938-1.12c0.005-0.023,0.011-0.047,0.014-0.072l0.156-1.765c0.031-0.347-0.226-0.653-0.573-0.685
					c-0.347-0.03-0.653,0.227-0.684,0.573l-0.051,0.589l-0.922-1.101c-0.229-0.272-0.635-0.309-0.908-0.08
					c-0.273,0.229-0.309,0.636-0.08,0.908l0.962,1.148l-0.677-0.061c-0.347-0.03-0.653,0.227-0.684,0.573
					c-0.031,0.348,0.226,0.653,0.573,0.684l1.765,0.157c0.052,0.004,0.102,0.001,0.15-0.008l0.896,1.069l-1.019,2.794l-1.269,0.135
					c-0.018-0.018-0.036-0.034-0.056-0.051l-1.379-1.113c-0.271-0.219-0.668-0.177-0.887,0.095
					c-0.219,0.271-0.177,0.668,0.094,0.887l0.459,0.372l-1.427,0.151c-0.354,0.037-0.61,0.354-0.572,0.709
					c0.037,0.353,0.355,0.61,0.709,0.573l1.489-0.159l-0.427,0.528c-0.219,0.271-0.177,0.668,0.095,0.888
					c0.271,0.219,0.668,0.176,0.887-0.096l1.113-1.378c0.033-0.04,0.059-0.083,0.08-0.129l1.437-0.153l1.795,2.142l-0.397,1.279
					c-0.023,0.01-0.047,0.02-0.069,0.031l-1.569,0.824c-0.308,0.163-0.426,0.545-0.264,0.853c0.162,0.309,0.544,0.428,0.853,0.266
					l0.522-0.275l-0.425,1.37c-0.105,0.34,0.084,0.7,0.424,0.807c0.339,0.105,0.701-0.085,0.807-0.424l0.444-1.431l0.316,0.601
					c0.162,0.31,0.544,0.428,0.852,0.266c0.309-0.162,0.427-0.544,0.265-0.852l-0.825-1.569c-0.024-0.045-0.054-0.087-0.086-0.124
					l0.393-1.265l2.786-0.489l0.772,0.922c-0.016,0.047-0.028,0.096-0.032,0.147l-0.156,1.765c-0.031,0.348,0.227,0.654,0.573,0.685
					c0.347,0.029,0.653-0.227,0.684-0.574l0.06-0.676l0.962,1.148c0.229,0.272,0.635,0.309,0.908,0.079
					c0.273-0.229,0.309-0.635,0.08-0.907l-0.921-1.101l0.588,0.052c0.347,0.031,0.653-0.226,0.684-0.572
					c0.031-0.347-0.226-0.653-0.573-0.685l-1.765-0.154c-0.025-0.003-0.049,0-0.073,0l-0.855-1.02l0.964-2.644l1.188-0.127
					c0.03,0.04,0.065,0.076,0.105,0.109l1.379,1.113c0.271,0.219,0.668,0.177,0.888-0.095c0.219-0.271,0.176-0.668-0.095-0.888
					l-0.528-0.427l1.489-0.157c0.354-0.038,0.61-0.355,0.572-0.71C98.607,82.651,98.289,82.394,97.936,82.433z M87.172,84.689
					l0.87-2.386l2.501-0.439l1.513,1.806c0.001,0.012,0.001,0.023,0.002,0.035c0.009,0.083,0.033,0.16,0.07,0.23l-0.783,2.146
					c-0.028,0.017-0.055,0.035-0.081,0.057c-0.028,0.023-0.054,0.05-0.077,0.077l-2.385,0.419L87.172,84.689z"/>
				<defs>
					<filter id="Adobe_OpacityMaskFilter_2_" filterUnits="userSpaceOnUse" x="80.535" y="75.417" width="13.539" height="12.321">
						<feColorMatrix  type="matrix" values="1 0 0 0 0  0 1 0 0 0  0 0 1 0 0  0 0 0 1 0"/>
					</filter>
				</defs>
				<mask maskUnits="userSpaceOnUse" x="80.535" y="75.417" width="13.539" height="12.321" id="SVGID_9_">
					<g style="filter:url(#Adobe_OpacityMaskFilter_2_);">
						
							<linearGradient id="SVGID_10_" gradientUnits="userSpaceOnUse" x1="-67.8684" y1="-444.9569" x2="-67.3756" y2="-441.6307" gradientTransform="matrix(-3.1946 1.6139 -1.637 -3.0474 -861.6501 -996.335)">
							<stop  offset="0" style="stop-color:#FFFFFF"/>
							<stop  offset="1" style="stop-color:#000000"/>
						</linearGradient>
						<polygon style="fill:url(#SVGID_10_);" points="68.918,244.677 82.254,234.86 90.564,245.356 77.23,255.174 						"/>
					</g>
				</mask>
				<path style="mask:url(#SVGID_9_);fill:#FFFFFF;" d="M92.568,75.446c-0.34-0.105-0.701,0.084-0.806,0.424l-0.426,1.37
					l-0.274-0.522c-0.162-0.31-0.544-0.428-0.852-0.265c-0.309,0.162-0.427,0.544-0.265,0.852l0.825,1.568
					c0.012,0.023,0.026,0.045,0.04,0.065l-0.441,1.414l-2.774,0.487l-0.938-1.12c0.005-0.023,0.011-0.047,0.014-0.072l0.156-1.765
					c0.03-0.347-0.226-0.653-0.573-0.684c-0.347-0.03-0.653,0.226-0.684,0.573l-0.052,0.588l-0.921-1.099
					c-0.229-0.274-0.635-0.309-0.908-0.08c-0.273,0.228-0.309,0.635-0.081,0.907l0.962,1.148l-0.677-0.061
					c-0.347-0.03-0.653,0.226-0.684,0.573c-0.031,0.348,0.226,0.653,0.573,0.684l1.765,0.156c0.052,0.005,0.102,0.001,0.151-0.007
					l0.896,1.07l-1.02,2.793l-1.268,0.136c-0.018-0.019-0.036-0.035-0.056-0.052l-1.379-1.113c-0.271-0.219-0.668-0.177-0.888,0.095
					c-0.219,0.271-0.176,0.668,0.095,0.888l0.459,0.371l-1.426,0.151c-0.354,0.038-0.611,0.354-0.573,0.709
					c0.038,0.354,0.355,0.609,0.709,0.572l1.488-0.158l-0.426,0.528c-0.219,0.272-0.177,0.668,0.094,0.887
					c0.271,0.22,0.668,0.177,0.887-0.094l1.113-1.38c0.033-0.039,0.059-0.082,0.08-0.128l1.438-0.153l1.704,2.034
					c0.334-0.407,0.697-0.813,1.086-1.21l-1.546-1.846l0.87-2.386l2.5-0.438l1.514,1.807c0.001,0.012,0.001,0.022,0.002,0.035
					c0.002,0.021,0.009,0.04,0.012,0.06c0.483-0.318,0.968-0.606,1.449-0.863l-0.163,0.017l-1.771-2.114l0.447-1.437
					c0.048-0.013,0.096-0.029,0.142-0.054l1.568-0.825c0.308-0.162,0.427-0.543,0.265-0.853c-0.162-0.308-0.543-0.427-0.852-0.265
					l-0.601,0.316l0.444-1.43C93.099,75.912,92.908,75.552,92.568,75.446z"/>
			</g>
			<g>
				
					<radialGradient id="SVGID_11_" cx="28.2738" cy="-0.7594" r="37.4156" gradientTransform="matrix(1 0 0 1.25 0 39.9993)" gradientUnits="userSpaceOnUse">
					<stop  offset="0" style="stop-color:#FFFFFF"/>
					<stop  offset="0.2076" style="stop-color:#F7F8F9"/>
					<stop  offset="0.3887" style="stop-color:#E7EAEE"/>
					<stop  offset="0.5281" style="stop-color:#D6DAE2"/>
					<stop  offset="0.6096" style="stop-color:#DDE1E7"/>
					<stop  offset="0.7182" style="stop-color:#F3F3F6"/>
					<stop  offset="0.7191" style="stop-color:#F3F3F6"/>
				</radialGradient>
				<ellipse style="fill:url(#SVGID_11_);" cx="29.573" cy="49.998" rx="20.229" ry="18.248"/>
				<defs>
					<filter id="Adobe_OpacityMaskFilter_3_" filterUnits="userSpaceOnUse" x="12.566" y="32.201" width="43.967" height="23.109">
						<feColorMatrix  type="matrix" values="1 0 0 0 0  0 1 0 0 0  0 0 1 0 0  0 0 0 1 0"/>
					</filter>
				</defs>
				<mask maskUnits="userSpaceOnUse" x="12.566" y="32.201" width="43.967" height="23.109" id="SVGID_12_">
					<g style="filter:url(#Adobe_OpacityMaskFilter_3_);">
						
							<linearGradient id="SVGID_13_" gradientUnits="userSpaceOnUse" x1="174.2114" y1="265.285" x2="175.767" y2="275.7852" gradientTransform="matrix(4.4887 0.4284 -1.0777 2.3855 -465.2947 -514.169)">
							<stop  offset="0" style="stop-color:#FFFFFF"/>
							<stop  offset="1" style="stop-color:#000000"/>
						</linearGradient>
						<polygon style="fill:url(#SVGID_13_);" points="54.078,221.996 0,222.014 2.791,192.561 56.87,192.539 						"/>
					</g>
				</mask>
				<path style="mask:url(#SVGID_12_);fill:#FFFFFF;" d="M56.41,44.749c-1.272,6.359-12.09,11.062-24.167,10.518
					c-12.07-0.546-20.825-6.148-19.556-12.501c1.268-6.354,12.084-11.064,24.166-10.522C48.927,32.799,57.679,38.388,56.41,44.749z"
					/>
				<radialGradient id="SVGID_14_" cx="99.0709" cy="8.467" r="51.4433" gradientUnits="userSpaceOnUse">
					<stop  offset="0" style="stop-color:#FFFFFF"/>
					<stop  offset="0.2076" style="stop-color:#F7F8F9"/>
					<stop  offset="0.3887" style="stop-color:#E7EAEE"/>
					<stop  offset="0.5281" style="stop-color:#D6DAE2"/>
					<stop  offset="0.6096" style="stop-color:#DDE1E7"/>
					<stop  offset="0.7182" style="stop-color:#F3F3F6"/>
					<stop  offset="0.7191" style="stop-color:#F3F3F6"/>
				</radialGradient>
				<ellipse style="fill:url(#SVGID_14_);" cx="100.734" cy="21.168" rx="25.911" ry="21.167"/>
				<defs>
					<filter id="Adobe_OpacityMaskFilter_4_" filterUnits="userSpaceOnUse" x="79.273" y="1.55" width="41.048" height="26.755">
						<feColorMatrix  type="matrix" values="1 0 0 0 0  0 1 0 0 0  0 0 1 0 0  0 0 0 1 0"/>
					</filter>
				</defs>
				<mask maskUnits="userSpaceOnUse" x="79.273" y="1.55" width="41.048" height="26.755" id="SVGID_15_">
					<g style="filter:url(#Adobe_OpacityMaskFilter_4_);">
						
							<linearGradient id="SVGID_16_" gradientUnits="userSpaceOnUse" x1="176.5527" y1="345.9102" x2="178.4271" y2="358.5626" gradientTransform="matrix(2.7875 0.4757 -0.6337 2.2757 -177.8147 -708.951)">
							<stop  offset="0" style="stop-color:#FFFFFF"/>
							<stop  offset="1" style="stop-color:#000000"/>
						</linearGradient>
						<polygon style="fill:url(#SVGID_16_);" points="117.769,196.075 67.274,194.664 69.44,160.642 119.935,162.049 						"/>
					</g>
				</mask>
				<path style="mask:url(#SVGID_15_);fill:#FFFFFF;" d="M120.224,16.658c-1.093,7.326-11.122,12.483-22.408,11.534
					c-11.279-0.951-19.537-7.668-18.447-14.989c1.09-7.319,11.118-12.487,22.406-11.542C113.057,2.625,121.313,9.326,120.224,16.658
					z"/>
				<radialGradient id="SVGID_17_" cx="145.0552" cy="39.8537" r="51.4441" gradientUnits="userSpaceOnUse">
					<stop  offset="0" style="stop-color:#FFFFFF"/>
					<stop  offset="0.2076" style="stop-color:#F7F8F9"/>
					<stop  offset="0.3887" style="stop-color:#E7EAEE"/>
					<stop  offset="0.5281" style="stop-color:#D6DAE2"/>
					<stop  offset="0.6096" style="stop-color:#DDE1E7"/>
					<stop  offset="0.7182" style="stop-color:#F3F3F6"/>
					<stop  offset="0.7191" style="stop-color:#F3F3F6"/>
				</radialGradient>
				<ellipse style="fill:url(#SVGID_17_);" cx="146.719" cy="52.555" rx="25.912" ry="21.167"/>
				<radialGradient id="SVGID_18_" cx="62.9041" cy="21.6801" r="80.4092" gradientUnits="userSpaceOnUse">
					<stop  offset="0" style="stop-color:#FFFFFF"/>
					<stop  offset="0.2076" style="stop-color:#F7F8F9"/>
					<stop  offset="0.3887" style="stop-color:#E7EAEE"/>
					<stop  offset="0.5281" style="stop-color:#D6DAE2"/>
					<stop  offset="0.6096" style="stop-color:#DDE1E7"/>
					<stop  offset="0.7182" style="stop-color:#F3F3F6"/>
					<stop  offset="0.7191" style="stop-color:#F3F3F6"/>
				</radialGradient>
				<ellipse style="fill:url(#SVGID_18_);" cx="65.517" cy="41.469" rx="40.692" ry="32.982"/>
				<defs>
					<filter id="Adobe_OpacityMaskFilter_5_" filterUnits="userSpaceOnUse" x="35.136" y="10" width="66.006" height="45.007">
						<feColorMatrix  type="matrix" values="1 0 0 0 0  0 1 0 0 0  0 0 1 0 0  0 0 0 1 0"/>
					</filter>
				</defs>
				<mask maskUnits="userSpaceOnUse" x="35.136" y="10" width="66.006" height="45.007" id="SVGID_19_">
					<g style="filter:url(#Adobe_OpacityMaskFilter_5_);">
						
							<linearGradient id="SVGID_20_" gradientUnits="userSpaceOnUse" x1="190.9502" y1="381.4859" x2="193.3849" y2="397.9196" gradientTransform="matrix(3.4519 0.6227 -0.779 2.9455 -297.0686 -1074.3423)">
							<stop  offset="0" style="stop-color:#FFFFFF"/>
							<stop  offset="1" style="stop-color:#000000"/>
						</linearGradient>
						<polygon style="fill:url(#SVGID_20_);" points="101.415,225.239 20.218,222.709 23.594,165.488 104.792,168.014 						"/>
					</g>
				</mask>
				<path style="mask:url(#SVGID_19_);fill:#FFFFFF;" d="M100.991,35.478c-1.734,12.319-17.846,20.965-35.994,19.331
					c-18.139-1.635-31.44-12.959-29.71-25.268C37.017,17.23,53.126,8.569,71.28,10.196C89.423,11.852,102.721,23.149,100.991,35.478
					z"/>
				<defs>
					<filter id="Adobe_OpacityMaskFilter_6_" filterUnits="userSpaceOnUse" x="123.078" y="32.315" width="43.985" height="22.796">
						<feColorMatrix  type="matrix" values="1 0 0 0 0  0 1 0 0 0  0 0 1 0 0  0 0 0 1 0"/>
					</filter>
				</defs>
				<mask maskUnits="userSpaceOnUse" x="123.078" y="32.315" width="43.985" height="22.796" id="SVGID_21_">
					<g style="filter:url(#Adobe_OpacityMaskFilter_6_);">
						
							<linearGradient id="SVGID_22_" gradientUnits="userSpaceOnUse" x1="224.1071" y1="361.295" x2="225.3512" y2="369.6922" gradientTransform="matrix(4.4947 0.5723 -1.0548 2.9316 -485.473 -993.9358)">
							<stop  offset="0" style="stop-color:#FFFFFF"/>
							<stop  offset="1" style="stop-color:#000000"/>
						</linearGradient>
						<polygon style="fill:url(#SVGID_22_);" points="164.687,222.141 110.582,221.402 113.217,192.382 167.321,193.116 						"/>
					</g>
				</mask>
				<path style="mask:url(#SVGID_21_);fill:#FFFFFF;" d="M166.947,45c-1.239,6.257-12.037,10.744-24.121,10.038
					c-12.08-0.706-20.868-6.355-19.633-12.605c1.235-6.251,12.03-10.747,24.12-10.045C159.395,33.104,168.182,38.741,166.947,45z"/>
				<radialGradient id="SVGID_23_" cx="112.3774" cy="31.6783" r="68.5117" gradientUnits="userSpaceOnUse">
					<stop  offset="0" style="stop-color:#FFFFFF"/>
					<stop  offset="0.2076" style="stop-color:#F7F8F9"/>
					<stop  offset="0.3887" style="stop-color:#E7EAEE"/>
					<stop  offset="0.5281" style="stop-color:#D6DAE2"/>
					<stop  offset="0.6096" style="stop-color:#DDE1E7"/>
					<stop  offset="0.7182" style="stop-color:#F3F3F6"/>
					<stop  offset="0.7191" style="stop-color:#F3F3F6"/>
				</radialGradient>
				<ellipse style="fill:url(#SVGID_23_);" cx="114.603" cy="48.539" rx="34.671" ry="28.102"/>
				<defs>
					<filter id="Adobe_OpacityMaskFilter_7_" filterUnits="userSpaceOnUse" x="86.248" y="21.818" width="48.322" height="33.957">
						<feColorMatrix  type="matrix" values="1 0 0 0 0  0 1 0 0 0  0 0 1 0 0  0 0 0 1 0"/>
					</filter>
				</defs>
				<mask maskUnits="userSpaceOnUse" x="86.248" y="21.818" width="48.322" height="33.957" id="SVGID_24_">
					<g style="filter:url(#Adobe_OpacityMaskFilter_7_);">
						
							<linearGradient id="SVGID_25_" gradientUnits="userSpaceOnUse" x1="178.1424" y1="287.5718" x2="179.9246" y2="299.6011" gradientTransform="matrix(3.4529 0.6462 -0.7753 3.0348 -286.0512 -806.3011)">
							<stop  offset="0" style="stop-color:#FFFFFF"/>
							<stop  offset="1" style="stop-color:#000000"/>
						</linearGradient>
						<polygon style="fill:url(#SVGID_25_);" points="132.891,224.582 73.447,222.597 75.865,179.43 135.309,181.412 						"/>
					</g>
				</mask>
				<path style="mask:url(#SVGID_24_);fill:#FFFFFF;" d="M134.462,41.072c-1.258,9.294-13.045,15.799-26.331,14.55
					c-13.28-1.251-23.028-9.806-21.774-19.091c1.255-9.287,13.041-15.806,26.332-14.561
					C125.971,23.235,135.716,31.771,134.462,41.072z"/>
			</g>
			<g>
				
					<radialGradient id="SVGID_26_" cx="-128.0642" cy="819.8488" r="13.405" gradientTransform="matrix(0.8877 -0.4604 0.4604 0.8877 -218.2181 -700.5083)" gradientUnits="userSpaceOnUse">
					<stop  offset="0.5169" style="stop-color:#7ED3F7"/>
					<stop  offset="0.629" style="stop-color:#84D5F7"/>
					<stop  offset="0.7601" style="stop-color:#95DAF8"/>
					<stop  offset="0.9001" style="stop-color:#B0E2FA"/>
					<stop  offset="1" style="stop-color:#C7EAFB"/>
				</radialGradient>
				<path style="fill:url(#SVGID_26_);" d="M64.782,86.174l-3.176-0.36l1.03-0.818c0.607-0.484,0.708-1.369,0.224-1.976
					c-0.484-0.607-1.368-0.708-1.976-0.225l-3.088,2.46c-0.045,0.034-0.085,0.073-0.125,0.112l-3.08-0.349l-2.829-5.454l1.667-2.91
					c0.111-0.003,0.222-0.018,0.333-0.048l3.81-1.035c0.75-0.202,1.191-0.974,0.988-1.724c-0.204-0.75-0.976-1.192-1.725-0.989
					l-1.459,0.397l1.658-2.895c0.394-0.688,0.156-1.565-0.532-1.96c-0.688-0.394-1.565-0.155-1.959,0.533l-1.589,2.772l-0.344-1.269
					c-0.203-0.75-0.976-1.193-1.725-0.988c-0.75,0.203-1.192,0.976-0.988,1.725l1.035,3.81c0.015,0.055,0.034,0.107,0.054,0.159
					l-1.64,2.863l-6.27-0.283l-1.498-2.889c0.021-0.05,0.048-0.098,0.064-0.15l1.193-3.764c0.234-0.739-0.175-1.529-0.916-1.765
					c-0.74-0.235-1.53,0.176-1.765,0.915l-0.397,1.255l-1.472-2.838c-0.365-0.704-1.231-0.977-1.935-0.613
					c-0.705,0.365-0.979,1.231-0.614,1.936l1.536,2.961l-1.443-0.458c-0.74-0.234-1.53,0.175-1.765,0.915
					c-0.234,0.741,0.176,1.531,0.916,1.766l3.763,1.192c0.11,0.035,0.22,0.052,0.33,0.059l1.431,2.759l-3.568,5.582l-2.824-0.32
					c-0.029-0.047-0.061-0.094-0.096-0.139l-2.459-3.088c-0.484-0.607-1.368-0.707-1.976-0.225
					c-0.607,0.484-0.707,1.369-0.224,1.976l0.819,1.03l-3.175-0.361c-0.788-0.09-1.499,0.478-1.588,1.265
					c-0.089,0.788,0.477,1.499,1.265,1.588l3.314,0.376l-1.182,0.942c-0.608,0.483-0.708,1.368-0.225,1.975
					c0.483,0.607,1.368,0.709,1.976,0.225l3.088-2.458c0.09-0.073,0.168-0.155,0.236-0.241l3.199,0.361l2.865,5.525l-1.483,2.59
					c-0.055,0.008-0.11,0.019-0.165,0.034l-3.81,1.034c-0.75,0.202-1.191,0.975-0.988,1.724c0.204,0.75,0.977,1.192,1.726,0.989
					l1.27-0.346l-1.588,2.773c-0.395,0.688-0.156,1.564,0.532,1.959c0.687,0.394,1.564,0.156,1.958-0.532l1.658-2.894l0.396,1.46
					c0.204,0.749,0.976,1.191,1.725,0.987c0.75-0.202,1.191-0.975,0.988-1.724l-1.034-3.81c-0.031-0.112-0.075-0.217-0.128-0.313
					l1.466-2.56l6.294,0.285l1.233,2.379c-0.058,0.094-0.108,0.193-0.142,0.303l-1.193,3.764c-0.234,0.74,0.176,1.53,0.915,1.765
					c0.74,0.235,1.53-0.175,1.765-0.916l0.458-1.44l1.535,2.96c0.365,0.705,1.231,0.979,1.935,0.614
					c0.704-0.366,0.979-1.231,0.613-1.936l-1.471-2.836l1.254,0.396c0.74,0.235,1.53-0.175,1.765-0.915
					c0.234-0.738-0.176-1.529-0.915-1.764l-3.763-1.193c-0.053-0.018-0.106-0.022-0.16-0.033l-1.364-2.631l3.375-5.282l2.644,0.3
					c0.047,0.102,0.104,0.198,0.176,0.29l2.46,3.087c0.483,0.607,1.367,0.708,1.975,0.225c0.607-0.484,0.707-1.369,0.223-1.976
					l-0.941-1.184l3.314,0.376c0.787,0.089,1.498-0.478,1.587-1.265C66.136,86.974,65.57,86.264,64.782,86.174z M40.287,85.871
					l3.046-4.766l5.65,0.256l2.417,4.66c-0.004,0.025-0.009,0.051-0.012,0.078c-0.021,0.184-0.005,0.364,0.041,0.532l-2.741,4.289
					c-0.069,0.023-0.138,0.05-0.205,0.084c-0.073,0.038-0.141,0.083-0.205,0.131l-5.387-0.243L40.287,85.871z"/>
				<defs>
					<filter id="Adobe_OpacityMaskFilter_8_" filterUnits="userSpaceOnUse" x="25.399" y="67.696" width="33.202" height="25.025">
						<feColorMatrix  type="matrix" values="1 0 0 0 0  0 1 0 0 0  0 0 1 0 0  0 0 0 1 0"/>
					</filter>
				</defs>
				<mask maskUnits="userSpaceOnUse" x="25.399" y="67.696" width="33.202" height="25.025" id="SVGID_27_">
					<g style="filter:url(#Adobe_OpacityMaskFilter_8_);">
						
							<linearGradient id="SVGID_28_" gradientUnits="userSpaceOnUse" x1="-100.426" y1="-364.6501" x2="-99.3285" y2="-357.2415" gradientTransform="matrix(-3.469 0.8813 -0.9358 -3.3303 -649.3885 -871.5917)">
							<stop  offset="0" style="stop-color:#FFFFFF"/>
							<stop  offset="1" style="stop-color:#000000"/>
						</linearGradient>
						<polygon style="fill:url(#SVGID_28_);" points="11.023,235.434 44.769,220.546 57.76,247.391 24.014,262.28 						"/>
					</g>
				</mask>
				<path style="mask:url(#SVGID_27_);fill:#FFFFFF;" d="M56.494,68.385c-0.689-0.395-1.565-0.156-1.96,0.532l-1.588,2.773
					l-0.345-1.27c-0.203-0.75-0.976-1.191-1.725-0.989c-0.75,0.204-1.192,0.976-0.989,1.725l1.036,3.809
					c0.015,0.056,0.034,0.109,0.055,0.161l-1.641,2.862l-6.271-0.284l-1.498-2.889c0.022-0.05,0.048-0.097,0.065-0.149l1.193-3.764
					c0.234-0.74-0.176-1.53-0.915-1.764c-0.74-0.235-1.53,0.175-1.765,0.915l-0.398,1.253l-1.471-2.836
					c-0.365-0.705-1.232-0.98-1.935-0.614c-0.704,0.365-0.979,1.23-0.613,1.936l1.535,2.96l-1.442-0.455
					c-0.74-0.235-1.53,0.174-1.765,0.915c-0.235,0.738,0.175,1.528,0.914,1.764l3.763,1.192c0.11,0.035,0.22,0.051,0.331,0.059
					l1.431,2.759l-3.569,5.581l-2.823-0.319c-0.029-0.047-0.061-0.094-0.096-0.139l-2.459-3.088
					c-0.484-0.606-1.368-0.707-1.975-0.224c-0.607,0.483-0.708,1.367-0.224,1.975l0.819,1.03l-3.175-0.36
					c-0.788-0.09-1.499,0.475-1.588,1.264c-0.089,0.789,0.476,1.498,1.264,1.588l3.314,0.376l-1.183,0.942
					c-0.608,0.483-0.708,1.368-0.224,1.975c0.483,0.608,1.368,0.708,1.975,0.224l3.088-2.458c0.091-0.072,0.168-0.153,0.236-0.241
					l3.2,0.363l2.721,5.246c0.924-0.724,1.908-1.429,2.947-2.106l-2.469-4.76l3.046-4.768l5.65,0.257l2.417,4.66
					c-0.004,0.026-0.01,0.052-0.013,0.078c-0.006,0.045-0.001,0.091-0.002,0.137c1.205-0.459,2.397-0.853,3.568-1.177l-0.361-0.041
					l-2.829-5.454l1.667-2.91c0.11-0.004,0.223-0.017,0.334-0.048l3.81-1.034c0.749-0.204,1.191-0.975,0.987-1.726
					c-0.203-0.748-0.976-1.191-1.725-0.988l-1.459,0.396l1.658-2.893C57.419,69.656,57.181,68.779,56.494,68.385z"/>
			</g>
		</g>
	</g>
</g>
<g id="Layer_1">
</g>
</svg>
