<?xml version="1.0" encoding="iso-8859-1"?>
<!-- Generator: Adobe Illustrator 19.0.0, SVG Export Plug-In . SVG Version: 6.00 Build 0)  -->
<svg version="1.1" xmlns="http://www.w3.org/2000/svg" xmlns:xlink="http://www.w3.org/1999/xlink" x="0px" y="0px"
	 viewBox="0 0 197.601 169.276" style="enable-background:new 0 0 197.601 169.276;" xml:space="preserve">
<g id="thunderstorm">
	<g>
		
			<radialGradient id="SVGID_1_" cx="55.231" cy="626.4338" r="75.3913" gradientTransform="matrix(1.3106 0 0 0.3571 26.4145 -81.3474)" gradientUnits="userSpaceOnUse">
			<stop  offset="0.0056" style="stop-color:#A7A9AC"/>
			<stop  offset="1" style="stop-color:#FFFFFF"/>
		</radialGradient>
		<ellipse style="fill:url(#SVGID_1_);" cx="98.8" cy="142.352" rx="98.8" ry="26.925"/>
		<g>
			<g>
				
					<radialGradient id="SVGID_2_" cx="42.6335" cy="-158.8481" r="89.6244" gradientTransform="matrix(0.9836 0.1805 -0.1805 0.9836 33.9951 220.9734)" gradientUnits="userSpaceOnUse">
					<stop  offset="0" style="stop-color:#FFF200"/>
					<stop  offset="0.0739" style="stop-color:#FFEA00"/>
					<stop  offset="0.1893" style="stop-color:#FFDA00"/>
					<stop  offset="0.3318" style="stop-color:#FEC00F"/>
					<stop  offset="0.4943" style="stop-color:#F99C1C"/>
					<stop  offset="0.5281" style="stop-color:#F7941E"/>
					<stop  offset="0.5583" style="stop-color:#F89722"/>
					<stop  offset="0.5987" style="stop-color:#F99F31"/>
					<stop  offset="0.6448" style="stop-color:#FBAD4B"/>
					<stop  offset="0.6951" style="stop-color:#FDC16E"/>
					<stop  offset="0.7482" style="stop-color:#FFDB98"/>
					<stop  offset="0.7978" style="stop-color:#FFFBCC"/>
				</radialGradient>
				<polygon style="fill:url(#SVGID_2_);" points="87.822,50.926 122.084,57.214 105.637,87.943 124.806,90.758 86.435,142.775 
					100.351,105.254 86.067,102.633 				"/>
				<defs>
					<filter id="Adobe_OpacityMaskFilter" filterUnits="userSpaceOnUse" x="87.194" y="55.987" width="34.01" height="45.756">
						<feColorMatrix  type="matrix" values="1 0 0 0 0  0 1 0 0 0  0 0 1 0 0  0 0 0 1 0"/>
					</filter>
				</defs>
				<mask maskUnits="userSpaceOnUse" x="87.194" y="55.987" width="34.01" height="45.756" id="SVGID_3_">
					<g style="filter:url(#Adobe_OpacityMaskFilter);">
						
							<linearGradient id="SVGID_4_" gradientUnits="userSpaceOnUse" x1="-2875.4878" y1="212.9998" x2="-2875.4878" y2="258.5193" gradientTransform="matrix(-1 0 0 -1 -2618 488)">
							<stop  offset="0" style="stop-color:#FFFFFF"/>
							<stop  offset="1" style="stop-color:#000000"/>
						</linearGradient>
						<rect x="218.393" y="217.932" style="fill:url(#SVGID_4_);" width="78.19" height="60.467"/>
					</g>
				</mask>
				<path style="opacity:0.6;mask:url(#SVGID_3_);fill:#FFFFFF;" d="M109.061,96.897c2.502,0,4.944,0.215,7.312,0.612l4.832-6.551
					l-16.829-2.472l14.439-26.979l-30.08-5.521l-1.54,45.395l1.967,0.361C94.952,98.671,101.766,96.897,109.061,96.897z"/>
			</g>
			<g>
				
					<radialGradient id="SVGID_5_" cx="45.1964" cy="-1.3601" r="37.4164" gradientTransform="matrix(1 0 0 1.25 0 40.7493)" gradientUnits="userSpaceOnUse">
					<stop  offset="0" style="stop-color:#DEDFE0"/>
					<stop  offset="0.1299" style="stop-color:#D9DBDD"/>
					<stop  offset="0.2434" style="stop-color:#CCCFD4"/>
					<stop  offset="0.3507" style="stop-color:#B9BDC4"/>
					<stop  offset="0.4537" style="stop-color:#A0A6AF"/>
					<stop  offset="0.5169" style="stop-color:#8E959F"/>
					<stop  offset="0.5506" style="stop-color:#939AA4"/>
					<stop  offset="0.5955" style="stop-color:#A1A7B1"/>
					<stop  offset="0.6468" style="stop-color:#BABFC7"/>
					<stop  offset="0.7024" style="stop-color:#DEDFE6"/>
					<stop  offset="0.7191" style="stop-color:#EBEBF0"/>
				</radialGradient>
				<ellipse style="fill:url(#SVGID_5_);" cx="46.495" cy="49.998" rx="20.229" ry="18.248"/>
				<defs>
					<filter id="Adobe_OpacityMaskFilter_1_" filterUnits="userSpaceOnUse" x="29.488" y="32.2" width="43.967" height="23.109">
						<feColorMatrix  type="matrix" values="1 0 0 0 0  0 1 0 0 0  0 0 1 0 0  0 0 0 1 0"/>
					</filter>
				</defs>
				<mask maskUnits="userSpaceOnUse" x="29.488" y="32.2" width="43.967" height="23.109" id="SVGID_6_">
					<g style="filter:url(#Adobe_OpacityMaskFilter_1_);">
						
							<linearGradient id="SVGID_7_" gradientUnits="userSpaceOnUse" x1="212.7229" y1="256.8565" x2="214.2785" y2="267.3568" gradientTransform="matrix(4.4887 0.4284 -1.0777 2.3855 -468.5278 -510.0125)">
							<stop  offset="0" style="stop-color:#FFFFFF"/>
							<stop  offset="1" style="stop-color:#000000"/>
						</linearGradient>
						<polygon style="fill:url(#SVGID_7_);" points="232.795,222.545 178.717,222.563 181.509,193.109 235.587,193.088 						"/>
					</g>
				</mask>
				<path style="opacity:0.5;mask:url(#SVGID_6_);fill:#FFFFFF;" d="M73.333,44.748c-1.272,6.359-12.091,11.062-24.167,10.518
					c-12.07-0.546-20.824-6.148-19.556-12.501c1.268-6.354,12.085-11.065,24.166-10.522C65.85,32.798,74.602,38.387,73.333,44.748z"
					/>
				<radialGradient id="SVGID_8_" cx="115.9932" cy="8.467" r="51.4437" gradientUnits="userSpaceOnUse">
					<stop  offset="0" style="stop-color:#DEDFE0"/>
					<stop  offset="0.1299" style="stop-color:#D9DBDD"/>
					<stop  offset="0.2434" style="stop-color:#CCCFD4"/>
					<stop  offset="0.3507" style="stop-color:#B9BDC4"/>
					<stop  offset="0.4537" style="stop-color:#A0A6AF"/>
					<stop  offset="0.5169" style="stop-color:#8E959F"/>
					<stop  offset="0.5506" style="stop-color:#939AA4"/>
					<stop  offset="0.5955" style="stop-color:#A1A7B1"/>
					<stop  offset="0.6468" style="stop-color:#BABFC7"/>
					<stop  offset="0.7024" style="stop-color:#DEDFE6"/>
					<stop  offset="0.7191" style="stop-color:#EBEBF0"/>
				</radialGradient>
				<ellipse style="fill:url(#SVGID_8_);" cx="117.657" cy="21.167" rx="25.912" ry="21.168"/>
				<defs>
					<filter id="Adobe_OpacityMaskFilter_2_" filterUnits="userSpaceOnUse" x="96.195" y="1.549" width="41.047" height="26.755">
						<feColorMatrix  type="matrix" values="1 0 0 0 0  0 1 0 0 0  0 0 1 0 0  0 0 0 1 0"/>
					</filter>
				</defs>
				<mask maskUnits="userSpaceOnUse" x="96.195" y="1.549" width="41.047" height="26.755" id="SVGID_9_">
					<g style="filter:url(#Adobe_OpacityMaskFilter_2_);">
						
							<linearGradient id="SVGID_10_" gradientUnits="userSpaceOnUse" x1="238.0966" y1="331.6052" x2="239.9711" y2="344.2577" gradientTransform="matrix(2.7875 0.4757 -0.6337 2.2757 -179.7158 -705.1239)">
							<stop  offset="0" style="stop-color:#FFFFFF"/>
							<stop  offset="1" style="stop-color:#000000"/>
						</linearGradient>
						<polygon style="fill:url(#SVGID_10_);" points="296.486,196.625 245.992,195.214 248.158,161.191 298.652,162.599 						"/>
					</g>
				</mask>
				<path style="opacity:0.5;mask:url(#SVGID_9_);fill:#FFFFFF;" d="M137.145,16.657c-1.093,7.327-11.122,12.483-22.407,11.534
					c-11.278-0.95-19.536-7.668-18.446-14.989c1.089-7.319,11.117-12.487,22.405-11.542C129.979,2.624,138.235,9.326,137.145,16.657
					z"/>
				<radialGradient id="SVGID_11_" cx="161.978" cy="39.8528" r="51.444" gradientUnits="userSpaceOnUse">
					<stop  offset="0" style="stop-color:#DEDFE0"/>
					<stop  offset="0.1299" style="stop-color:#D9DBDD"/>
					<stop  offset="0.2434" style="stop-color:#CCCFD4"/>
					<stop  offset="0.3507" style="stop-color:#B9BDC4"/>
					<stop  offset="0.4537" style="stop-color:#A0A6AF"/>
					<stop  offset="0.5169" style="stop-color:#8E959F"/>
					<stop  offset="0.5506" style="stop-color:#939AA4"/>
					<stop  offset="0.5955" style="stop-color:#A1A7B1"/>
					<stop  offset="0.6468" style="stop-color:#BABFC7"/>
					<stop  offset="0.7024" style="stop-color:#DEDFE6"/>
					<stop  offset="0.7191" style="stop-color:#EBEBF0"/>
				</radialGradient>
				<ellipse style="fill:url(#SVGID_11_);" cx="163.642" cy="52.554" rx="25.912" ry="21.167"/>
				<radialGradient id="SVGID_12_" cx="79.827" cy="21.6791" r="80.4092" gradientUnits="userSpaceOnUse">
					<stop  offset="0" style="stop-color:#DEDFE0"/>
					<stop  offset="0.1299" style="stop-color:#D9DBDD"/>
					<stop  offset="0.2434" style="stop-color:#CCCFD4"/>
					<stop  offset="0.3507" style="stop-color:#B9BDC4"/>
					<stop  offset="0.4537" style="stop-color:#A0A6AF"/>
					<stop  offset="0.5169" style="stop-color:#8E959F"/>
					<stop  offset="0.5506" style="stop-color:#939AA4"/>
					<stop  offset="0.5955" style="stop-color:#A1A7B1"/>
					<stop  offset="0.6468" style="stop-color:#BABFC7"/>
					<stop  offset="0.7024" style="stop-color:#DEDFE6"/>
					<stop  offset="0.7191" style="stop-color:#EBEBF0"/>
				</radialGradient>
				<ellipse style="fill:url(#SVGID_12_);" cx="82.439" cy="41.469" rx="40.692" ry="32.981"/>
				<defs>
					<filter id="Adobe_OpacityMaskFilter_3_" filterUnits="userSpaceOnUse" x="52.059" y="9.999" width="66.006" height="45.007">
						<feColorMatrix  type="matrix" values="1 0 0 0 0  0 1 0 0 0  0 0 1 0 0  0 0 0 1 0"/>
					</filter>
				</defs>
				<mask maskUnits="userSpaceOnUse" x="52.059" y="9.999" width="66.006" height="45.007" id="SVGID_13_">
					<g style="filter:url(#Adobe_OpacityMaskFilter_3_);">
						
							<linearGradient id="SVGID_14_" gradientUnits="userSpaceOnUse" x1="240.6259" y1="369.1893" x2="243.0605" y2="385.6228" gradientTransform="matrix(3.4519 0.6227 -0.779 2.9455 -299.4056 -1068.5059)">
							<stop  offset="0" style="stop-color:#FFFFFF"/>
							<stop  offset="1" style="stop-color:#000000"/>
						</linearGradient>
						<polygon style="fill:url(#SVGID_14_);" points="280.133,225.788 198.935,223.258 202.311,166.037 283.51,168.563 						"/>
					</g>
				</mask>
				<path style="opacity:0.5;mask:url(#SVGID_13_);fill:#FFFFFF;" d="M117.913,35.477c-1.734,12.32-17.846,20.965-35.994,19.331
					C63.78,53.174,50.48,41.85,52.21,29.54c1.729-12.31,17.839-20.971,35.992-19.345C106.346,11.851,119.644,23.149,117.913,35.477z
					"/>
				<defs>
					<filter id="Adobe_OpacityMaskFilter_4_" filterUnits="userSpaceOnUse" x="140" y="32.314" width="43.985" height="22.797">
						<feColorMatrix  type="matrix" values="1 0 0 0 0  0 1 0 0 0  0 0 1 0 0  0 0 0 1 0"/>
					</filter>
				</defs>
				<mask maskUnits="userSpaceOnUse" x="140" y="32.314" width="43.985" height="22.797" id="SVGID_15_">
					<g style="filter:url(#Adobe_OpacityMaskFilter_4_);">
						
							<linearGradient id="SVGID_16_" gradientUnits="userSpaceOnUse" x1="262.3989" y1="352.0303" x2="263.6429" y2="360.4275" gradientTransform="matrix(4.4947 0.5723 -1.0548 2.9316 -488.6374 -988.141)">
							<stop  offset="0" style="stop-color:#FFFFFF"/>
							<stop  offset="1" style="stop-color:#000000"/>
						</linearGradient>
						<polygon style="fill:url(#SVGID_16_);" points="343.405,222.689 289.3,221.951 291.935,192.932 346.039,193.665 						"/>
					</g>
				</mask>
				<path style="opacity:0.5;mask:url(#SVGID_15_);fill:#FFFFFF;" d="M183.87,45c-1.239,6.256-12.038,10.744-24.121,10.038
					c-12.08-0.707-20.868-6.356-19.633-12.606c1.235-6.25,12.029-10.747,24.12-10.045C176.317,33.104,185.104,38.741,183.87,45z"/>
				<radialGradient id="SVGID_17_" cx="129.2995" cy="31.6773" r="68.5115" gradientUnits="userSpaceOnUse">
					<stop  offset="0" style="stop-color:#DEDFE0"/>
					<stop  offset="0.1299" style="stop-color:#D9DBDD"/>
					<stop  offset="0.2434" style="stop-color:#CCCFD4"/>
					<stop  offset="0.3507" style="stop-color:#B9BDC4"/>
					<stop  offset="0.4537" style="stop-color:#A0A6AF"/>
					<stop  offset="0.5169" style="stop-color:#8E959F"/>
					<stop  offset="0.5506" style="stop-color:#939AA4"/>
					<stop  offset="0.5955" style="stop-color:#A1A7B1"/>
					<stop  offset="0.6468" style="stop-color:#BABFC7"/>
					<stop  offset="0.7024" style="stop-color:#DEDFE6"/>
					<stop  offset="0.7191" style="stop-color:#EBEBF0"/>
				</radialGradient>
				<ellipse style="fill:url(#SVGID_17_);" cx="131.525" cy="48.539" rx="34.671" ry="28.101"/>
				<defs>
					<filter id="Adobe_OpacityMaskFilter_5_" filterUnits="userSpaceOnUse" x="103.171" y="21.817" width="48.322" height="33.957">
						<feColorMatrix  type="matrix" values="1 0 0 0 0  0 1 0 0 0  0 0 1 0 0  0 0 0 1 0"/>
					</filter>
				</defs>
				<mask maskUnits="userSpaceOnUse" x="103.171" y="21.817" width="48.322" height="33.957" id="SVGID_18_">
					<g style="filter:url(#Adobe_OpacityMaskFilter_5_);">
						
							<linearGradient id="SVGID_19_" gradientUnits="userSpaceOnUse" x1="227.7901" y1="275.1697" x2="229.5722" y2="287.199" gradientTransform="matrix(3.4529 0.6462 -0.7753 3.0348 -288.3771 -800.1967)">
							<stop  offset="0" style="stop-color:#FFFFFF"/>
							<stop  offset="1" style="stop-color:#000000"/>
						</linearGradient>
						<polygon style="fill:url(#SVGID_19_);" points="311.608,225.131 252.164,223.145 254.583,179.979 314.025,181.961 						"/>
					</g>
				</mask>
				<path style="opacity:0.5;mask:url(#SVGID_18_);fill:#FFFFFF;" d="M151.384,41.071c-1.258,9.294-13.045,15.799-26.331,14.55
					c-13.279-1.25-23.027-9.806-21.773-19.091c1.255-9.286,13.04-15.805,26.331-14.561
					C142.894,23.235,152.638,31.772,151.384,41.071z"/>
			</g>
		</g>
	</g>
</g>
<g id="Layer_1">
</g>
</svg>
