<?xml version="1.0" encoding="iso-8859-1"?>
<!-- Generator: Adobe Illustrator 19.0.0, SVG Export Plug-In . SVG Version: 6.00 Build 0)  -->
<svg version="1.1" xmlns="http://www.w3.org/2000/svg" xmlns:xlink="http://www.w3.org/1999/xlink" x="0px" y="0px"
	 viewBox="0 0 143.911 139.809" style="enable-background:new 0 0 143.911 139.809;" xml:space="preserve">
<g id="tornado">
	<g>
		
			<radialGradient id="SVGID_1_" cx="28.3493" cy="591.4046" r="54.907" gradientTransform="matrix(1.3106 0 0 0.3571 34.8007 -90.9909)" gradientUnits="userSpaceOnUse">
			<stop  offset="0.0056" style="stop-color:#A7A9AC"/>
			<stop  offset="1" style="stop-color:#FFFFFF"/>
		</radialGradient>
		<ellipse style="fill:url(#SVGID_1_);" cx="71.955" cy="120.199" rx="71.955" ry="19.609"/>
		<g>
			<radialGradient id="SVGID_2_" cx="72.851" cy="75.1773" r="40.1658" gradientUnits="userSpaceOnUse">
				<stop  offset="0" style="stop-color:#DEDFE0"/>
				<stop  offset="0.1299" style="stop-color:#D9DBDD"/>
				<stop  offset="0.2434" style="stop-color:#CCCFD4"/>
				<stop  offset="0.3507" style="stop-color:#B9BDC4"/>
				<stop  offset="0.4537" style="stop-color:#A0A6AF"/>
				<stop  offset="0.5169" style="stop-color:#8E959F"/>
				<stop  offset="0.5506" style="stop-color:#939AA4"/>
				<stop  offset="0.5955" style="stop-color:#A1A7B1"/>
				<stop  offset="0.6468" style="stop-color:#BABFC7"/>
				<stop  offset="0.7024" style="stop-color:#DEDFE6"/>
				<stop  offset="0.7191" style="stop-color:#EBEBF0"/>
			</radialGradient>
			<path style="fill:url(#SVGID_2_);" d="M74.252,74.204c15.114,0,27.365,7.58,27.365,16.93c0,0.369-0.026,0.735-0.063,1.101
				c0.535-1.332,0.824-2.723,0.824-4.159c0-9.479-12.423-17.162-27.747-17.162c-15.323,0-27.745,7.684-27.745,17.162
				c0,0.518,0.044,1.029,0.116,1.534C48.25,80.974,59.969,74.204,74.252,74.204z"/>
			<radialGradient id="SVGID_3_" cx="75.7758" cy="61.3203" r="62.5374" gradientUnits="userSpaceOnUse">
				<stop  offset="0" style="stop-color:#DEDFE0"/>
				<stop  offset="0.1299" style="stop-color:#D9DBDD"/>
				<stop  offset="0.2434" style="stop-color:#CCCFD4"/>
				<stop  offset="0.3507" style="stop-color:#B9BDC4"/>
				<stop  offset="0.4537" style="stop-color:#A0A6AF"/>
				<stop  offset="0.5169" style="stop-color:#8E959F"/>
				<stop  offset="0.5506" style="stop-color:#939AA4"/>
				<stop  offset="0.5955" style="stop-color:#A1A7B1"/>
				<stop  offset="0.6468" style="stop-color:#BABFC7"/>
				<stop  offset="0.7024" style="stop-color:#DEDFE6"/>
				<stop  offset="0.7191" style="stop-color:#EBEBF0"/>
			</radialGradient>
			<path style="fill:url(#SVGID_3_);" d="M85.063,60.699c-21.907,0-39.666,10.986-39.666,24.539c0,3.01,0.879,5.892,2.481,8.555
				c-5.647-4.286-9.038-9.753-9.038-15.71c0-13.741,18.006-24.881,40.217-24.881c18.448,0,33.985,7.688,38.723,18.166
				C110.63,64.927,98.646,60.699,85.063,60.699z"/>
			<radialGradient id="SVGID_4_" cx="74.0445" cy="97.9578" r="30.4855" gradientUnits="userSpaceOnUse">
				<stop  offset="0" style="stop-color:#DEDFE0"/>
				<stop  offset="0.1299" style="stop-color:#D9DBDD"/>
				<stop  offset="0.2434" style="stop-color:#CCCFD4"/>
				<stop  offset="0.3507" style="stop-color:#B9BDC4"/>
				<stop  offset="0.4537" style="stop-color:#A0A6AF"/>
				<stop  offset="0.5169" style="stop-color:#8E959F"/>
				<stop  offset="0.5506" style="stop-color:#939AA4"/>
				<stop  offset="0.5955" style="stop-color:#A1A7B1"/>
				<stop  offset="0.6468" style="stop-color:#BABFC7"/>
				<stop  offset="0.7024" style="stop-color:#DEDFE6"/>
				<stop  offset="0.7191" style="stop-color:#EBEBF0"/>
			</radialGradient>
			<path style="fill:url(#SVGID_4_);" d="M75.072,97.151c11.088,0,20.076,6.293,20.076,14.054c0,0.308-0.019,0.612-0.047,0.916
				c0.394-1.106,0.605-2.264,0.605-3.456c0-7.867-9.112-14.248-20.355-14.248c-11.241,0-20.355,6.381-20.355,14.248
				c0,0.43,0.031,0.854,0.085,1.274C55.996,102.77,64.595,97.151,75.072,97.151z"/>
			
				<radialGradient id="SVGID_5_" cx="72.1835" cy="65.635" r="71.5486" gradientTransform="matrix(0.9999 -0.0145 0.0145 0.9999 -3.1464 -18.1038)" gradientUnits="userSpaceOnUse">
				<stop  offset="0" style="stop-color:#DEDFE0"/>
				<stop  offset="0.1299" style="stop-color:#D9DBDD"/>
				<stop  offset="0.2434" style="stop-color:#CCCFD4"/>
				<stop  offset="0.3507" style="stop-color:#B9BDC4"/>
				<stop  offset="0.4537" style="stop-color:#A0A6AF"/>
				<stop  offset="0.5169" style="stop-color:#8E959F"/>
				<stop  offset="0.5506" style="stop-color:#939AA4"/>
				<stop  offset="0.5955" style="stop-color:#A1A7B1"/>
				<stop  offset="0.6468" style="stop-color:#BABFC7"/>
				<stop  offset="0.7024" style="stop-color:#DEDFE6"/>
				<stop  offset="0.7191" style="stop-color:#EBEBF0"/>
			</radialGradient>
			<path style="fill:url(#SVGID_5_);" d="M65.146,45.839c25.06-0.364,45.559,11.911,45.783,27.414
				c0.05,3.442-0.909,6.753-2.697,9.827c6.389-4.995,10.177-11.306,10.079-18.124C118.082,49.238,97.3,36.793,71.891,37.161
				c-21.104,0.306-38.75,9.359-43.996,21.423C35.966,51.097,49.605,46.063,65.146,45.839z"/>
			
				<radialGradient id="SVGID_6_" cx="-160.5387" cy="34.436" r="68.2861" gradientTransform="matrix(1.2166 -0.0145 0.0176 0.9999 265.1024 -18.1038)" gradientUnits="userSpaceOnUse">
				<stop  offset="0" style="stop-color:#DEDFE0"/>
				<stop  offset="0.1299" style="stop-color:#D9DBDD"/>
				<stop  offset="0.2434" style="stop-color:#CCCFD4"/>
				<stop  offset="0.3507" style="stop-color:#B9BDC4"/>
				<stop  offset="0.4537" style="stop-color:#A0A6AF"/>
				<stop  offset="0.5169" style="stop-color:#8E959F"/>
				<stop  offset="0.5506" style="stop-color:#939AA4"/>
				<stop  offset="0.5955" style="stop-color:#A1A7B1"/>
				<stop  offset="0.6468" style="stop-color:#BABFC7"/>
				<stop  offset="0.7024" style="stop-color:#DEDFE6"/>
				<stop  offset="0.7191" style="stop-color:#EBEBF0"/>
			</radialGradient>
			<path style="fill:url(#SVGID_6_);" d="M73.416,29.578c25.027-0.298,46.303,7.922,53.28,19.447
				c2.4-3.231,3.702-6.729,3.637-10.375c-0.276-15.718-25.563-28.162-56.479-27.795c-30.915,0.368-55.753,13.408-55.476,29.126
				c0.057,3.22,1.177,6.299,3.165,9.16C28.803,38.032,49.212,29.866,73.416,29.578z"/>
			
				<radialGradient id="SVGID_7_" cx="-169.2201" cy="26.3332" r="75.2567" gradientTransform="matrix(1.2166 -0.0145 0.0176 0.9999 265.1024 -18.1038)" gradientUnits="userSpaceOnUse">
				<stop  offset="0" style="stop-color:#DEDFE0"/>
				<stop  offset="0.1299" style="stop-color:#D9DBDD"/>
				<stop  offset="0.2434" style="stop-color:#CCCFD4"/>
				<stop  offset="0.3507" style="stop-color:#B9BDC4"/>
				<stop  offset="0.4537" style="stop-color:#A0A6AF"/>
				<stop  offset="0.5169" style="stop-color:#8E959F"/>
				<stop  offset="0.5506" style="stop-color:#939AA4"/>
				<stop  offset="0.5955" style="stop-color:#A1A7B1"/>
				<stop  offset="0.6468" style="stop-color:#BABFC7"/>
				<stop  offset="0.7024" style="stop-color:#DEDFE6"/>
				<stop  offset="0.7191" style="stop-color:#EBEBF0"/>
			</radialGradient>
			<path style="fill:url(#SVGID_7_);" d="M14.509,48.679c-1.631-2.689-2.544-5.547-2.596-8.515
				C11.622,23.623,37.758,9.898,70.293,9.511c22.8-0.272,42.675,6.083,52.638,15.602C117.341,11.19,92.948,0.92,63.88,1.266
				C30.895,1.658,4.392,15.573,4.689,32.343C4.795,38.407,8.403,44.009,14.509,48.679z"/>
			
				<radialGradient id="SVGID_8_" cx="-130.6831" cy="64.3936" r="68.2846" gradientTransform="matrix(1.1824 -0.0171 0.0145 0.9999 218.544 -20.975)" gradientUnits="userSpaceOnUse">
				<stop  offset="0" style="stop-color:#FFFFFF"/>
				<stop  offset="0.2076" style="stop-color:#F7F8F9"/>
				<stop  offset="0.3887" style="stop-color:#E7EAEE"/>
				<stop  offset="0.5281" style="stop-color:#D6DAE2"/>
				<stop  offset="0.6096" style="stop-color:#DDE1E7"/>
				<stop  offset="0.7182" style="stop-color:#F3F3F6"/>
				<stop  offset="0.7191" style="stop-color:#F3F3F6"/>
			</radialGradient>
			<path style="fill:url(#SVGID_8_);" d="M69.375,57.904c-24.322,0.35-44.978-7.821-51.727-19.333
				c-2.342,3.237-3.615,6.738-3.563,10.384c0.227,15.719,24.769,28.11,54.815,27.674c30.045-0.435,54.218-13.529,53.99-29.248
				c-0.046-3.219-1.128-6.295-3.052-9.153C112.754,49.353,92.898,57.563,69.375,57.904z"/>
			<radialGradient id="SVGID_9_" cx="52.9569" cy="58.9818" r="71.5469" gradientUnits="userSpaceOnUse">
				<stop  offset="0" style="stop-color:#FFFFFF"/>
				<stop  offset="0.2076" style="stop-color:#F7F8F9"/>
				<stop  offset="0.3887" style="stop-color:#E7EAEE"/>
				<stop  offset="0.5281" style="stop-color:#D6DAE2"/>
				<stop  offset="0.6096" style="stop-color:#DDE1E7"/>
				<stop  offset="0.7182" style="stop-color:#F3F3F6"/>
				<stop  offset="0.7191" style="stop-color:#F3F3F6"/>
			</radialGradient>
			<path style="fill:url(#SVGID_9_);" d="M48.13,87.554c25.063,0,45.382-12.568,45.382-28.074c0-3.443-1.007-6.738-2.838-9.785
				c6.461,4.901,10.339,11.156,10.339,17.974c0,15.721-20.6,28.464-46.011,28.464c-21.106,0-38.882-8.795-44.302-20.783
				C18.878,82.719,32.589,87.554,48.13,87.554z"/>
			
				<radialGradient id="SVGID_10_" cx="-171.8526" cy="25.5359" r="74.6668" gradientTransform="matrix(1.2166 -0.0145 0.0176 0.9999 265.1024 -18.1038)" gradientUnits="userSpaceOnUse">
				<stop  offset="0" style="stop-color:#FFFFFF"/>
				<stop  offset="0.2076" style="stop-color:#F7F8F9"/>
				<stop  offset="0.3887" style="stop-color:#E7EAEE"/>
				<stop  offset="0.5281" style="stop-color:#D6DAE2"/>
				<stop  offset="0.6096" style="stop-color:#DDE1E7"/>
				<stop  offset="0.7182" style="stop-color:#F3F3F6"/>
				<stop  offset="0.7191" style="stop-color:#F3F3F6"/>
			</radialGradient>
			<path style="fill:url(#SVGID_10_);" d="M109.334,0c1.617,2.667,2.524,5.502,2.575,8.447c0.29,16.412-25.643,30.028-57.922,30.413
				c-22.621,0.269-42.341-6.037-52.226-15.48C7.309,37.194,31.51,47.384,60.35,47.041c32.727-0.39,59.021-14.194,58.728-30.835
				C118.971,10.191,115.392,4.632,109.334,0z"/>
			
				<radialGradient id="SVGID_11_" cx="163.7433" cy="70.1853" r="66.6109" gradientTransform="matrix(0.9336 0 0 1 -78.0037 0)" gradientUnits="userSpaceOnUse">
				<stop  offset="0" style="stop-color:#FFFFFF"/>
				<stop  offset="0.2076" style="stop-color:#F7F8F9"/>
				<stop  offset="0.3887" style="stop-color:#E7EAEE"/>
				<stop  offset="0.5281" style="stop-color:#D6DAE2"/>
				<stop  offset="0.6096" style="stop-color:#DDE1E7"/>
				<stop  offset="0.7182" style="stop-color:#F3F3F6"/>
				<stop  offset="0.7191" style="stop-color:#F3F3F6"/>
			</radialGradient>
			<path style="fill:url(#SVGID_11_);" d="M78.214,93.014c-23.4,0-42.37-12.57-42.37-28.074c0-0.613,0.041-1.222,0.1-1.826
				c-0.83,2.208-1.277,4.518-1.277,6.896c0,15.721,19.232,28.465,42.958,28.465c23.724,0,42.957-12.744,42.957-28.465
				c0-0.856-0.067-1.703-0.179-2.541C118.473,81.787,100.327,93.014,78.214,93.014z"/>
			<radialGradient id="SVGID_12_" cx="72.9188" cy="90.7053" r="38.5437" gradientUnits="userSpaceOnUse">
				<stop  offset="0" style="stop-color:#FFFFFF"/>
				<stop  offset="0.2076" style="stop-color:#F7F8F9"/>
				<stop  offset="0.3887" style="stop-color:#E7EAEE"/>
				<stop  offset="0.5281" style="stop-color:#D6DAE2"/>
				<stop  offset="0.6096" style="stop-color:#DDE1E7"/>
				<stop  offset="0.7182" style="stop-color:#F3F3F6"/>
				<stop  offset="0.7191" style="stop-color:#F3F3F6"/>
			</radialGradient>
			<path style="fill:url(#SVGID_12_);" d="M74.925,105.156c-14.019,0-25.384-7.955-25.384-17.77c0-0.389,0.024-0.772,0.06-1.158
				c-0.498,1.398-0.766,2.861-0.766,4.369c0,9.948,11.522,18.015,25.737,18.015c14.212,0,25.734-8.066,25.734-18.015
				c0-0.544-0.04-1.08-0.107-1.609C99.042,98.051,88.171,105.156,74.925,105.156z"/>
			
				<radialGradient id="SVGID_13_" cx="300.2056" cy="104.743" r="38.5422" gradientTransform="matrix(0.8517 0 0 1 -182.5208 0)" gradientUnits="userSpaceOnUse">
				<stop  offset="0" style="stop-color:#FFFFFF"/>
				<stop  offset="0.2076" style="stop-color:#F7F8F9"/>
				<stop  offset="0.3887" style="stop-color:#E7EAEE"/>
				<stop  offset="0.5281" style="stop-color:#D6DAE2"/>
				<stop  offset="0.6096" style="stop-color:#DDE1E7"/>
				<stop  offset="0.7182" style="stop-color:#F3F3F6"/>
				<stop  offset="0.7191" style="stop-color:#F3F3F6"/>
			</radialGradient>
			<path style="fill:url(#SVGID_13_);" d="M74.872,119.193c-11.94,0-21.619-7.955-21.619-17.768c0-0.389,0.021-0.775,0.051-1.158
				c-0.424,1.398-0.652,2.86-0.652,4.367c0,9.949,9.813,18.015,21.919,18.015c12.104,0,21.918-8.065,21.918-18.015
				c0-0.543-0.034-1.079-0.092-1.608C95.413,112.088,86.154,119.193,74.872,119.193z"/>
		</g>
	</g>
</g>
<g id="Layer_1">
</g>
</svg>
